<?xml version="1.0" encoding="utf-8" ?>
<svg baseProfile="full" height="200mm" version="1.1" viewBox="0,0,200,200" width="200mm" xmlns="http://www.w3.org/2000/svg" xmlns:ev="http://www.w3.org/2001/xml-events" xmlns:xlink="http://www.w3.org/1999/xlink"><defs /><rect fill="#1a1a1a" height="200" width="200" x="0" y="0" /><text alignment-baseline="middle" fill="#e1ed5e" style="dominant-baseline: central; font-size:9.0px; font-family:Arial;" text-anchor="middle" x="100.0" y="100.0">2019</text><line stroke="#e1ed5e" stroke-width="0.3" x1="100.0" x2="100.0" y1="15.0" y2="10.0" /><path d="M 100.0 14.0 a86.0,86.0 0 0,1 42.46469731375804,11.215312516191453" fill="none" id="id13" stroke="none" /><text fill="#e1ed5e" style="font-size:6.75px; font-family:Arial;" text-anchor="middle"><textPath startOffset="22.20632615414155" xlink:href="#id13">January</textPath></text><path d="M 105.01212808612495 79.60689891045804 l 3.7192914477120356 -15.13287074299432 a36.58322514106747,36.58322514106747 0 0,0 0.6102275519119265,0.15556059026557487 l -3.979227888308987 15.066607156559877" fill="#ff9a0e" stroke="none" /><line stroke="#e1ed5e" stroke-width="0.3" x1="143.23703022742887" x2="145.7803849466894" y1="26.81831364943548" y2="22.513508569990506" /><path d="M 143.74570117128098 25.957352633546492 a86.0,86.0 0 0,1 28.547481713284135,27.462654790039103" fill="none" id="id14" stroke="none" /><text fill="#e1ed5e" style="font-size:6.75px; font-family:Arial;" text-anchor="middle"><textPath startOffset="19.985693538727396" xlink:href="#id14">February</textPath></text><line stroke="#e1ed5e" stroke-width="0.3" x1="172.23445277983987" x2="176.4835382374775" y1="55.19839476539836" y2="52.563006222186495" /><path d="M 173.08426987136738 54.67131705675599 a86.0,86.0 0 0,1 12.851231095245387,41.99856678651699" fill="none" id="id15" stroke="none" /><text fill="#e1ed5e" style="font-size:6.75px; font-family:Arial;" text-anchor="middle"><textPath startOffset="22.20632615414155" xlink:href="#id15">March</textPath></text><line stroke="#e1ed5e" stroke-width="0.3" x1="184.98032266829074" x2="189.97916517819016" y1="98.17113171792111" y2="98.06355123074" /><path d="M 185.9800911702706 98.14961562048488 a86.0,86.0 0 0,1 -9.607161424134198,41.387399972396054" fill="none" id="id16" stroke="none" /><text fill="#e1ed5e" style="font-size:6.75px; font-family:Arial;" text-anchor="middle"><textPath startOffset="21.466115282336823" xlink:href="#id16">April</textPath></text><line stroke="#e1ed5e" stroke-width="0.3" x1="174.80103733775053" x2="179.2010983576182" y1="140.37084112569926" y2="142.7455964860345" /><path d="M 175.68104954172406 140.8457921977663 a86.0,86.0 0 0,1 -30.038265399797805,32.042727171017184" fill="none" id="id17" stroke="none" /><text fill="#e1ed5e" style="font-size:6.75px; font-family:Arial;" text-anchor="middle"><textPath startOffset="22.206326154141568" xlink:href="#id17">May</textPath></text><path d="M 116.27256486870786 113.27417163493432 l 33.86267482962618 27.62311665881356 a64.70031259114083,64.70031259114083 0 0,0 -0.711407665972979,0.8569363623069522 l -33.38217116375966 -28.201914278234284" fill="#33ff55" stroke="none" /><path d="M 115.80600337817218 113.82643327865902 l 3.9805006731268846 3.4819761615798566 a26.288529436296443,26.288529436296443 0 0,0 -0.30086740027490516,0.3380277136822675 l -3.9199744232036413 -3.5499780450029905" fill="#ff0000" stroke="none" /><path d="M 115.32070863581623 114.36230785411682 l 9.977812523957013 9.353641439582029 a34.67652554355453,34.67652554355453 0 0,0 -0.4119793306693737,0.4319586811351797 l -9.815326641908676 -9.524007237299717" fill="#ff7e0b" stroke="none" /><line stroke="#e1ed5e" stroke-width="0.3" x1="143.8653032363475" x2="146.44561519142675" y1="172.8068346515853" y2="177.08958963109032" /><path d="M 144.38136562736335 173.6633856474863 a86.0,86.0 0 0,1 -40.68145358897372,12.25698825130547" fill="none" id="id18" stroke="none" /><text fill="#e1ed5e" style="font-size:6.75px; font-family:Arial;" text-anchor="middle"><textPath startOffset="21.466115282336833" xlink:href="#id18">June</textPath></text><path d="M 109.2508944713604 118.85261126421891 l 7.033648391577857 14.334034325668396 a36.96673885756843,36.96673885756843 0 0,0 -0.5736662809059572,0.27539467647733906 l -6.785869442671666 -14.452983278645295" fill="#ff9f0e" stroke="none" /><path d="M 107.93186726928326 119.44442032107085 l 5.032633913498456 12.337151620665253 a34.324140280655186,34.324140280655186 0 0,0 -0.5489883477740237,0.2184537934075393 l -4.819524489682566 -12.42195225847886" fill="#ff790b" stroke="none" /><path d="M 104.83641907484287 120.43548508189849 l 3.1345822209037015 13.244656267786937 a34.61052994381311,34.61052994381311 0 0,0 -0.580929258287101,0.13221760784285955 l -2.9061328132237385 -13.29665060920748" fill="#ff7e0b" stroke="none" /><path d="M 103.06178313531738 120.77559828337769 l 2.1973133180943254 14.909775376599748 a36.070819075237246,36.070819075237246 0 0,0 -0.6150442382531024,0.08523952712601751 l -1.9403404886543925 -14.945389469218368" fill="#ff920d" stroke="none" /><line stroke="#e1ed5e" stroke-width="0.3" x1="102.19456741930631" x2="102.32365962044197" y1="184.97166512339345" y2="189.96999836594603" /><path d="M 102.22038585953345 185.97133177190398 a86.0,86.0 0 0,1 -42.740103519485714,-10.115201625700543" fill="none" id="id19" stroke="none" /><text fill="#e1ed5e" style="font-size:6.75px; font-family:Arial;" text-anchor="middle"><textPath startOffset="22.20632615414155" xlink:href="#id19">July</textPath></text><path d="M 95.16358092515715 120.4354850818985 l -2.670251109447961 11.282702319136765 a32.594378491741686,32.594378491741686 0 0,0 -0.5448642621601174,-0.13391437915731996 l 2.864068656351289 -11.235066681665415" fill="#ff6008" stroke="none" /><path d="M 93.76903079525671 120.05430185196036 l -2.330376233029045 7.500288778545516 a28.85397893739488,28.85397893739488 0 0,0 -0.4730385265400308,-0.15145199813380106 l 2.459136104660016 -7.459063933752009" fill="#ff2803" stroke="none" /><path d="M 93.42475214034765 119.94407469862007 l -4.470937130456438 13.561268868634224 a35.27926091056123,35.27926091056123 0 0,0 -0.5751028004423674,-0.19510609459973263 l 4.703709663836031 -13.48229978713637" fill="#ff870c" stroke="none" /><path d="M 92.7421414339146 119.70592522655815 l -6.26909371264182 17.02131431947112 a39.139092511482424,39.139092511482424 0 0,0 -0.6301948909785912,-0.23828578413482837 l 6.561158824380694 -16.91088028522966" fill="#ffbd11" stroke="none" /><line stroke="#e1ed5e" stroke-width="0.3" x1="58.666819895761336" x2="56.23545636021788" y1="174.27360380694188" y2="178.64263932499728" /><path d="M 58.180547188652646 175.14741091055294 a86.0,86.0 0 0,1 -31.652253787137756,-30.449443065178592" fill="none" id="id20" stroke="none" /><text fill="#e1ed5e" style="font-size:6.75px; font-family:Arial;" text-anchor="middle"><textPath startOffset="22.20632615414155" xlink:href="#id20">August</textPath></text><path d="M 88.24862548938628 117.40417183066458 l -14.689933646833444 21.756274480030875 a47.25127863169358,47.25127863169358 0 0,0 -0.6701651444388319,-0.4609456972370672 l 15.062255675895166 -21.500187993428707" fill="#d6ff1c" stroke="none" /><path d="M 85.44109423537348 115.13401014063109 l -9.750003238754843 10.135146849086501 a35.06356159755693,35.06356159755693 0 0,0 -0.4313653718382431,-0.4221818067195432 l 9.92301856296888 -9.965814939444387" fill="#ff840c" stroke="none" /><path d="M 84.43433777217949 114.09645910891817 l -15.293955702916227 13.850398269239028 a41.633434354447715,41.633434354447715 0 0,0 -0.47648702408754073,-0.5353382227666178 l 15.530101576652106 -13.585085876731545" fill="#ffdf14" stroke="none" /><path d="M 83.72743513129214 113.27417163493432 l -16.199195045897433 13.214320982706592 a41.90531509375134,41.90531509375134 0 0,0 -0.4511448158282978,-0.5628725244323856 l 16.424257773780592 -12.933520624695948" fill="#ffe315" stroke="none" /><line stroke="#e1ed5e" stroke-width="0.3" x1="26.63291911575756" x2="22.317208475507996" y1="142.92168965132927" y2="145.44649492493687" /><path d="M 25.769776987707644 143.4266507060508 a86.0,86.0 0 0,1 -11.730757126820373,-40.83630448921669" fill="none" id="id21" stroke="none" /><text fill="#e1ed5e" style="font-size:6.75px; font-family:Arial;" text-anchor="middle"><textPath startOffset="21.46611528233685" xlink:href="#id21">September</textPath></text><path d="M 81.51974371655577 109.97397251340807 l -18.952905096516055 10.229065635373944 a42.53709347545143,42.53709347545143 0 0,0 -0.34221596428957535,-0.647343636982485 l 19.126173569030517 -9.901306983305332" fill="#ffeb16" stroke="none" /><path d="M 81.18737489456691 109.33194174019688 l -19.868728274964603 9.855818296204959 a43.17889802384659,43.17889802384659 0 0,0 -0.3245546874299682,-0.6686787860287454 l 20.03543621900929 -9.51235055421093" fill="#fff417" stroke="none" /><path d="M 80.58989483394504 108.01547362559985 l -19.40834995939863 8.014748806618144 a41.99810102318007,41.99810102318007 0 0,0 -0.2701825549707502,-0.6705709439273333 l 19.543435128626772 -7.679478494848005" fill="#ffe415" stroke="none" /><path d="M 79.86692584326677 105.97154293290107 l -23.02640261582671 6.829714664548079 a45.017914560288,45.017914560288 0 0,0 -0.21395806405471463,-0.74481608963547 l 23.14055331676753 -6.432341099408013" fill="#f2ff19" stroke="none" /><path d="M 79.67330655649465 105.27499134158121 l -24.528573916923598 6.365423643187177 a46.34106462947504,46.34106462947504 0 0,0 -0.19372481704711259,-0.7738343456306246 l 24.63451004826577 -5.942261458159161" fill="#e1ff1b" stroke="none" /><line stroke="#e1ed5e" stroke-width="0.3" x1="15.007084014347285" x2="10.007500721073583" y1="101.09737516637583" y2="101.16192664675087" /><path d="M 14.007167355692545 101.11028546245083 a86.0,86.0 0 0,1 10.666146001902534,-42.60595125391555" fill="none" id="id22" stroke="none" /><text fill="#e1ed5e" style="font-size:6.75px; font-family:Arial;" text-anchor="middle"><textPath startOffset="22.20632615414155" xlink:href="#id22">October</textPath></text><line stroke="#e1ed5e" stroke-width="0.3" x1="26.266209847984243" x2="21.928928074336255" y1="57.711370442889674" y2="55.22380399835377" /><path d="M 25.398753493254645 57.213857153982495 a86.0,86.0 0 0,1 29.58750427330803,-30.492523968695096" fill="none" id="id23" stroke="none" /><text fill="#e1ed5e" style="font-size:6.75px; font-family:Arial;" text-anchor="middle"><textPath startOffset="21.46611528233685" xlink:href="#id23">November</textPath></text><path d="M 86.93701828274178 83.55741782278169 l -27.617064837176425 -34.7620373286528 a65.39708897506071,65.39708897506071 0 0,0 0.8874305402492736,-0.6926536128545376 l 27.014601741767727 35.23226933073057" fill="#34ff5e" stroke="none" /><line stroke="#e1ed5e" stroke-width="0.3" x1="56.762969772571076" x2="54.21961505331055" y1="26.818313649435495" y2="22.513508569990535" /><path d="M 56.25429882871897 25.957352633546506 a86.0,86.0 0 0,1 42.265352541879196,-11.944610805530505" fill="none" id="id24" stroke="none" /><text fill="#e1ed5e" style="font-size:6.75px; font-family:Arial;" text-anchor="middle"><textPath startOffset="22.20632615414155" xlink:href="#id24">December</textPath></text><path d="M 91.56875222667455 80.76684994638697 l -25.293743319976343 -57.69945016083907 a84.0,84.0 0 0,0 1.329264968838767,-0.5691218881488553 l 24.29679459334727 58.12629157695071" fill="#4dd2ff" stroke="none" /></svg>