<?xml version="1.0" encoding="utf-8" ?>
<svg baseProfile="full" height="200mm" version="1.1" viewBox="0,0,200,200" width="200mm" xmlns="http://www.w3.org/2000/svg" xmlns:ev="http://www.w3.org/2001/xml-events" xmlns:xlink="http://www.w3.org/1999/xlink"><defs /><rect fill="#1a1a1a" height="200" width="200" x="0" y="0" /><text alignment-baseline="middle" fill="#e1ed5e" style="dominant-baseline: central; font-size:9.0px; font-family:Arial;" text-anchor="middle" x="100.0" y="100.0">2024</text><line stroke="#e1ed5e" stroke-width="0.3" x1="100.0" x2="100.0" y1="15.0" y2="10.0" /><path d="M 100.0 14.0 a86.0,86.0 0 0,1 42.35913384403234,11.155469271406648" fill="none" id="id73" stroke="none" /><text fill="#e1ed5e" style="font-size:6.75px; font-family:Arial;" text-anchor="middle"><textPath startOffset="22.145653131862478" xlink:href="#id73">January</textPath></text><path d="M 101.44090949804482 79.04949213459386 l 0.35299798966422136 -5.132513297308288 a26.14463801717413,26.14463801717413 0 0,0 0.44748540589288305,0.034638200511609395 l -0.4410523903323379 5.125697329801625" fill="#ff0100" stroke="none" /><path d="M 102.15924093988457 79.11130261209362 l 0.6728167604840073 -6.508891827520296 a27.543573581426948,27.543573581426948 0 0,0 0.4698987407543829,0.05265313401650828 l -0.7844514028391869 6.496382932996817" fill="#ff1602" stroke="none" /><path d="M 102.87502721639298 79.19773525538626 l 1.044005260747049 -7.55390199612673 a28.625705367476172,28.625705367476172 0 0,0 0.4861938304214369,0.07145375006788199 l -1.1735241967761678 7.534867172759966" fill="#ff2703" stroke="none" /><path d="M 103.58742460773223 79.30868818359171 l 1.3085517173176018 -7.5473785714010555 a28.65997590707299,28.65997590707299 0 0,0 0.48403323769059164,0.08820697990272304 l -1.437919688559247 7.523803417566967" fill="#ff2703" stroke="none" /><path d="M 104.29559338865022 79.4440306129975 l 2.802794331137895 -13.41238549746408 a34.7021071662443,34.7021071662443 0 0,0 0.5820660174505582,0.12685857937333353 l -3.032622765207587 13.362295459957027" fill="#ff810b" stroke="none" /><path d="M 104.9986988182912 79.60360301121754 l 1.482757126948248 -6.050155070059112 a27.229200997662364,27.229200997662364 0 0,0 0.4530351761088114,0.11515977018658481 l -1.586397596282454 6.023810068037259" fill="#ff1101" stroke="none" /><path d="M 105.3480935250658 79.69241777938227 l 1.9066521337798246 -7.239868710481014 a28.486723001704362,28.486723001704362 0 0,0 0.47181962316258447,0.12859653638163218 l -2.0306531578771017 7.20607167995524" fill="#ff2503" stroke="none" /><path d="M 107.74402155503746 80.48000691201159 l 8.91541690704514 -22.47267458712725 a45.1765539671257,45.1765539671257 0 0,0 0.7184051741005224,0.2921691301223303 l -9.299876542336103 22.316318200425627" fill="#efff19" stroke="none" /><path d="M 108.07796709384702 80.6158196554323 l 1.997469177159625 -4.793198872061493 a26.19274864988036,26.19274864988036 0 0,0 0.41355222557987636,0.17652085376464546 l -2.079456477909931 4.758203368637446" fill="#ff0100" stroke="none" /><path d="M 108.4095320186766 80.7573450057729 l 8.63060079263088 -19.748503611932765 a42.552045493462614,42.552045493462614 0 0,0 0.6668241834750461,0.2982619756071908 l -8.968338378961557 19.59743788541572" fill="#ffed16" stroke="none" /><line stroke="#e1ed5e" stroke-width="0.3" x1="143.13028292997686" x2="145.6673583964461" y1="26.7553504044142" y2="22.446841604673864" /><path d="M 143.63769802327073 25.89364864446614 a86.0,86.0 0 0,1 29.32050498858742,28.57503671076993" fill="none" id="id74" stroke="none" /><text fill="#e1ed5e" style="font-size:6.75px; font-family:Arial;" text-anchor="middle"><textPath startOffset="20.669276256404974" xlink:href="#id74">February</textPath></text><path d="M 112.45986205192187 83.09580414077388 l 4.8828970922520325 -6.62458769317935 a29.229692954062543,29.229692954062543 0 0,0 0.4013473618266651,0.30117854257972493 l -4.995897442989464 6.53979012333561" fill="#ff3004" stroke="none" /><path d="M 112.7482090630111 83.31218511350987 l 38.24462718903332 -50.063444659470385 a84.0,84.0 0 0,0 1.138360221459096,0.8851957935168366 l -39.09839735512764 49.399547814332756" fill="#4dd2ff" stroke="none" /><path d="M 113.31354834802062 83.75963576809568 l 7.7580981092574195 -9.463618244186636 a33.23716292874152,33.23716292874152 0 0,0 0.4381380837294537,0.36551037236804357 l -7.9194105271487665 9.329045687906723" fill="#ff6c09" stroke="none" /><path d="M 113.86319453409587 84.22622945171908 l 37.605029484464765 -42.78762049327122 a77.96418796053945,77.96418796053945 0 0,0 0.9977001885863274,0.8921496607585454 l -38.33399469987447 42.135775302629284" fill="#45ffef" stroke="none" /><path d="M 114.91283532996326 85.21462403516908 l 7.876779826961865 -7.809457326993363 a32.091946816702816,32.091946816702816 0 0,0 0.38451225694517227,0.3945434493067395 l -8.00967888505785 7.673091185618882" fill="#ff5b08" stroke="none" /><path d="M 115.16444852881244 85.47280134310134 l 4.119190285711689 -3.9460911138578068 a26.704328504633047,26.704328504633047 0 0,0 0.3142770954243125,0.3337513844042191 l -4.186323214872261 3.874798269509093" fill="#ff0901" stroke="none" /><path d="M 115.41159269507618 85.73525988315684 l 5.591695351846862 -5.175589738505029 a28.61930351470424,28.61930351470424 0 0,0 0.33062423014149445,0.3634139457658037 l -5.679717282830234 5.078838217181554" fill="#ff2703" stroke="none" /><path d="M 116.35404254752997 86.82634096563983 l 6.070536308215283 -4.889994339180078 a28.795091770247048,28.795091770247048 0 0,0 0.30678231722672533,0.38760943602835346 l -6.153585056083568 4.785064959237047" fill="#ff2a04" stroke="none" /><path d="M 117.01052211995028 87.68569379921539 l 12.81006673198688 -9.273500429781736 a36.81441177847343,36.81441177847343 0 0,0 0.36618927509637517,0.5150910745623506 l -12.967371105613216 9.052232128509882" fill="#ff9f0e" stroke="none" /><path d="M 117.42321728460499 88.27688183743584 l 10.863678755556922 -7.309567897317254 a34.09386493551197,34.09386493551197 0 0,0 0.3225532259725658,0.4883866951329719 l -10.987556420450213 7.1220013238452236" fill="#ff780b" stroke="none" /><line stroke="#e1ed5e" stroke-width="0.3" x1="172.87174338648825" x2="177.1583165268699" y1="56.24261187166439" y2="53.66864786411523" /><path d="M 173.72905801456457 55.72781907015455 a86.0,86.0 0 0,1 12.242430191666344,42.057860355516425" fill="none" id="id75" stroke="none" /><text fill="#e1ed5e" style="font-size:6.75px; font-family:Arial;" text-anchor="middle"><textPath startOffset="22.145653131862474" xlink:href="#id75">March</textPath></text><path d="M 118.00360718960297 89.18935116829356 l 13.035472805184211 -7.827426879958132 a36.20500453192265,36.20500453192265 0 0,0 0.31537367398855026,0.5355734457032506 l -13.16792018930253 7.602502265961325" fill="#ff960d" stroke="none" /><path d="M 118.36410011445183 89.81374322990088 l 16.95502341637475 -9.404665678462608 a40.38867080471141,40.38867080471141 0 0,0 0.33109988104219834,0.6091864885608449 l -17.11396864703229 9.11222435642716" fill="#ffd013" stroke="none" /><path d="M 118.8641267826498 90.77261029715802 l 13.724188419167607 -6.713188283666823 a36.27809689381422,36.27809689381422 0 0,0 0.268839255162742,0.561770645654247 l -13.837406932290262 6.476605135947472" fill="#ff980e" stroke="none" /><path d="M 119.16976305983485 91.42560881287824 l 11.540742594942703 -5.162027370398283 a33.64259728914379,33.64259728914379 0 0,0 0.23127862711905173,0.5292107598028752 l -11.627655104078725 4.963154540819558" fill="#ff720a" stroke="none" /><path d="M 119.4528033332814 92.08871423366111 l 11.047786238647516 -4.493038485092384 a32.9264821134889,32.9264821134889 0 0,0 0.2084423886129247,0.5254109839507556 l -11.123287302226565 4.302726483928064" fill="#ff6709" stroke="none" /><path d="M 119.71291397450082 92.76114493625339 l 7.160093120045815 -2.629285371304593 a28.6275864499515,28.6275864499515 0 0,0 0.16543995350563948,0.46276499442580293 l -7.204173243595398 2.5059854204978733" fill="#ff2703" stroke="none" /><path d="M 119.83427380445688 93.10060997987247 l 8.387699323361591 -2.9176772275084564 a29.880672291163656,29.880672291163656 0 0,0 0.16436444108800402,0.4859142644294621 l -8.43654918602196 2.7732612886048327" fill="#ff3a05" stroke="none" /><path d="M 120.16314734710363 94.1308016681162 l 10.015981228725664 -2.91550616120754 a31.43168520183695,31.43168520183695 0 0,0 0.14635417027012676,0.5193593192101115 l -10.064553891070373 2.7431389180944152" fill="#ff5107" stroke="none" /><path d="M 120.43855184770803 95.1765574152323 l 7.411765105293892 -1.7491563836592887 a28.615366703616328,28.615366703616328 0 0,0 0.10872359311871363,0.4790562121302802 l -7.440699559970272 1.6216658375899822" fill="#ff2703" stroke="none" /><path d="M 120.592083275326 95.88100663000786 l 7.382667507928395 -1.4767402652479809 a28.528913689479136,28.528913689479136 0 0,0 0.0919360650728278,0.48104834094431054 l -7.40692986528338 1.3497893592703558" fill="#ff2503" stroke="none" /><path d="M 120.77682067341334 96.94652285012252 l 25.6677043640007 -3.7722686255640037 a46.94342032001862,46.94342032001862 0 0,0 0.11032929544982753,0.7982878213979203 l -25.728678176005737 3.331092495965998" fill="#d8ff1c" stroke="none" /><path d="M 120.86939407059847 97.66154086499901 l 7.662873094240416 -0.8586409134333762 a28.71082928592349,28.71082928592349 0 0,0 0.05067817864269046,0.49026540683042563 l -7.676483665364772 0.7269709843200192" fill="#ff2803" stroke="none" /><line stroke="#e1ed5e" stroke-width="0.3" x1="184.99686870605535" x2="189.99668451229388" y1="99.2704041080226" y2="99.22748670261217" /><path d="M 185.99683186730306 99.26182062694052 a86.0,86.0 0 0,1 -10.086455211305974,41.156179273409016" fill="none" id="id76" stroke="none" /><text fill="#e1ed5e" style="font-size:6.75px; font-family:Arial;" text-anchor="middle"><textPath startOffset="21.40746469413373" xlink:href="#id76">April</textPath></text><path d="M 120.82617615685814 102.69636545807757 l 7.634304831076758 0.9884136044903008 a28.69802388326663,28.69802388326663 0 0,0 -0.06744784965089277,0.4880190409651291 l -7.616212464870655 -1.1193209536555149" fill="#ff2803" stroke="none" /><path d="M 120.77682067341334 103.0534771498775 l 34.398148623820504 5.055343282397885 a55.767644792958436,55.767644792958436 0 0,0 -0.14732884381316422,0.9459568638619428 l -34.30629828786907 -5.645088328191279" fill="#6fff27" stroke="none" /><path d="M 120.65975698304385 103.76489593502545 l 8.950157487541873 1.63101683966272 a30.097556539151885,30.097556539151885 0 0,0 -0.09699110686913102,0.5074984556799274 l -8.920840088390582 -1.784417860375962" fill="#ff3d05" stroke="none" /><path d="M 120.51834098615036 104.47187691870673 l 8.891742355587171 1.9379138612559677 a30.10047208950123,30.10047208950123 0 0,0 -0.11436622546328011,0.5039186913759777 l -8.857165268566227 -2.090266886570962" fill="#ff3d05" stroke="none" /><path d="M 120.35273937422433 105.17358676015961 l 12.307768781788912 3.1285866951753087 a33.699182142768315,33.699182142768315 0 0,0 -0.14733044804683434,0.5594377086505203 l -12.252248852937347 -3.3394049081986323" fill="#ff730a" stroke="none" /><path d="M 120.16314734710363 105.8691983318838 l 39.14654299392732 11.394988137701606 a61.77128380409133,61.77128380409133 0 0,0 -0.3051021368695497,1.0155857845465763 l -38.94516453705414 -12.065311525838906" fill="#2fff30" stroke="none" /><path d="M 119.94978838288452 106.5578916946017 l 19.52234104566737 6.417381264675482 a41.550050661727255,41.550050661727255 0 0,0 -0.22855412313506196,0.6756796536425551 l -19.40930150095994 -6.751562592792198" fill="#ffe015" stroke="none" /><path d="M 119.58574465831526 107.57618678355244 l 7.027429135659447 2.7183605560450625 a28.53486857014619,28.53486857014619 0 0,0 -0.18064110654203452,0.4553335919905061 l -6.979729354151288 -2.838595165249133" fill="#ff2603" stroke="none" /><path d="M 119.4528033332814 107.91128576633889 l 16.139146395118996 6.563650337127348 a38.4227882989823,38.4227882989823 0 0,0 -0.2537260818054655,0.6088502305962559 l -16.024094468777044 -6.839733077164882" fill="#ffb510" stroke="none" /><path d="M 119.31412917781788 108.2440532568976 l 7.039266415761805 3.0046442522337706 a28.65370229069262,28.65370229069262 0 0,0 -0.1969820840737558,0.4507335575222161 l -6.9866504496710835 -3.125039879531831" fill="#ff2703" stroke="none" /><path d="M 119.0197475246899 108.90220220490707 l 12.467993369597155 5.835650442862763 a34.76610601279835,34.76610601279835 0 0,0 -0.25763462931219266,0.5383572870114884 l -12.36597948232505 -6.048820231939355" fill="#ff820c" stroke="none" /><path d="M 118.8641267826498 109.22738970284198 l 15.287227934704543 7.477749235624898 a38.01811010537009,38.01811010537009 0 0,0 -0.29179820410997465,0.5837918760876682 l -15.156609817382835 -7.739072967876312" fill="#ffb010" stroke="none" /><line stroke="#e1ed5e" stroke-width="0.3" x1="174.33088141563837" x2="178.70328620479359" y1="141.23008692659167" y2="143.65538615756765" /><path d="M 175.20536237346943 141.71514677278685 a86.0,86.0 0 0,1 -30.301960400862466,31.631185727798858" fill="none" id="id77" stroke="none" /><text fill="#e1ed5e" style="font-size:6.75px; font-family:Arial;" text-anchor="middle"><textPath startOffset="22.145653131862474" xlink:href="#id77">May</textPath></text><path d="M 118.36410011445183 110.18625677009912 l 11.452805764994297 6.352678298050418 a34.09668971340496,34.09668971340496 0 0,0 -0.2883064026818811,0.5094097885529376 l -11.342065997291039 -6.548344856702479" fill="#ff780b" stroke="none" /><path d="M 118.00360718960297 110.81064883170644 l 9.131025553190197 5.482918489017209 a31.650728745499958,31.650728745499958 0 0,0 -0.28369909991596637,0.46340115889765704 l -9.035558488818827 -5.6388567640394225" fill="#ff5407" stroke="none" /><path d="M 117.21940702142032 112.02048342749411 l 10.833529437887185 7.56264492194175 a34.212076229606744,34.212076229606744 0 0,0 -0.3403041034431848,0.4786803389432814 l -10.70211023591404 -7.747502487594535" fill="#ff7a0b" stroke="none" /><path d="M 117.01052211995028 112.31430620078461 l 28.102073991698745 20.343734399840702 a55.69285361520688,55.69285361520688 0 0,0 -0.5672661386622024,0.7696054637116682 l -27.748705833452714 -20.82314617282125" fill="#70ff27" stroke="none" /><path d="M 116.79662413953412 112.60449989151573 l 10.150007992849135 7.616755223070634 a33.690059983430935,33.690059983430935 0 0,0 -0.35109538143755886,0.45959512461492186 l -10.017760634057272 -7.789871260926434" fill="#ff720a" stroke="none" /><path d="M 116.57777611688842 112.89097897827486 l 8.456290782087402 6.5756628595686974 a31.712058431222616,31.712058431222616 0 0,0 -0.33785962021527594,0.42687459313899345 l -8.342164731230564 -6.719857396622373" fill="#ff5507" stroke="none" /><path d="M 116.1254893667686 113.45245675266167 l 20.804727949826116 17.356044001535427 a48.09370717435157,48.09370717435157 0 0,0 -0.5343106354701482,0.6294165850788516 l -20.503722750848855 -17.710627369063833" fill="#caff1d" stroke="none" /><path d="M 115.6541949942343 113.99807769240083 l 9.824816182379816 8.785411213107004 a34.17992652486874,34.17992652486874 0 0,0 -0.39486327428517964,0.43402390830391147 l -9.672555207252756 -8.952772696968587" fill="#ff7a0b" stroke="none" /><path d="M 115.16444852881244 114.52719865689866 l 10.060494449217433 9.63772610475887 a34.93195295115101,34.93195295115101 0 0,0 -0.41854002019469566,0.42945893208307745 l -9.893567627871931 -9.809007728909686" fill="#ff840c" stroke="none" /><path d="M 114.39649973595853 115.28858382429668 l 10.12358975915583 10.750901502054612 a35.7671579093123,35.7671579093123 0 0,0 -0.4506154832150572,0.4170829639653087 l -9.937544504626805 -10.9231022121523" fill="#ff900d" stroke="none" /><path d="M 113.86319453409587 115.77377054828091 l 16.75721922534656 19.06663939813905 a46.38387547450138,46.38387547450138 0 0,0 -0.6025939541699233,0.520506305456768 l -16.42744579141378 -19.351489836060537" fill="#dfff1b" stroke="none" /><path d="M 113.31354834802062 116.24036423190432 l 11.594003237322353 14.142798790976473 a39.28769172719966,39.28769172719966 0 0,0 -0.5252375803300773,0.42309421509642786 l -11.349514886637023 -14.339741299866304" fill="#ffc112" stroke="none" /><path d="M 113.03279911837588 116.46651593811092 l 7.758378120136094 9.802457308574896 a33.501223953735085,33.501223953735085 0 0,0 -0.4540054847514764,0.35303741097037467 l -7.588962690749387 -9.934195771166063" fill="#ff700a" stroke="none" /><path d="M 112.45986205192187 116.90419585922612 l 13.05680165579474 17.714059077450056 a43.00608912274407,43.00608912274407 0 0,0 -0.5980283187328959,0.4329263841337523 l -12.750792326687876 -17.935586232956883" fill="#fff316" stroke="none" /><line stroke="#e1ed5e" stroke-width="0.3" x1="143.1302829299769" x2="145.66735839644613" y1="173.24464959558577" y2="177.55315839532614" /><path d="M 143.63769802327073 174.10635135553383 a86.0,86.0 0 0,1 -40.68552437913181,11.842963189579606" fill="none" id="id78" stroke="none" /><text fill="#e1ed5e" style="font-size:6.75px; font-family:Arial;" text-anchor="middle"><textPath startOffset="21.407464694133747" xlink:href="#id78">June</textPath></text><path d="M 110.65571695917076 118.09573695890943 l 6.417087242022205 10.89761704622493 a33.64662270955753,33.64662270955753 0 0,0 -0.5002251924277727,0.288805149503608 l -6.229069581734033 -11.00616909300471" fill="#ff720a" stroke="none" /><path d="M 109.71004243097381 118.62028667847754 l 7.67339998630394 14.714756249450874 a37.59533424883521,37.59533424883521 0 0,0 -0.5748018294228586,0.293497909728496 l -7.419670935167499 -14.844312110852206" fill="#ffaa0f" stroke="none" /><path d="M 109.06512990194946 118.94263497670748 l 5.477054638185159 11.44493767665841 a33.68797564358715,33.68797564358715 0 0,0 -0.5237859168787149,0.2451582566006223 l -5.279780007434938 -11.537272164829567" fill="#ff720a" stroke="none" /><path d="M 108.73861861582097 119.09545874513695 l 6.4763589790726845 14.152013165980396 a36.5635054623275,36.5635054623275 0 0,0 -0.572979028203193,0.2562862313162766 l -6.232466548013865 -14.261103148206523" fill="#ff9c0e" stroke="none" /><path d="M 108.07796709384702 119.3841803445677 l 8.378471829558544 20.10528231536746 a42.78121133406803,42.78121133406803 0 0,0 -0.6803140318990937,0.2766777941971856 l -8.03210333646901 -20.246147366143937" fill="#fff016" stroke="none" /><path d="M 107.407793817531 119.65005319985036 l 5.636762299067814 14.952181685924732 a36.97938754724646,36.97938754724646 0 0,0 -0.5959155195797374,0.21882843307970284 l -5.37925762783395 -15.046740968013157" fill="#ffa10e" stroke="none" /><path d="M 106.72888874123015 119.89276391827305 l 4.954737510775809 14.647801051449122 a36.46310122334853,36.46310122334853 0 0,0 -0.594656337325998,0.1954753494547373 l -4.702558435802077 -14.730697322305877" fill="#ff9a0e" stroke="none" /><path d="M 106.38641147887787 120.00534299687104 l 3.2526715997595232 10.188947458926295 a31.695537520697254,31.695537520697254 0 0,0 -0.5197454876867139,0.16101848066716737 l -3.077285479201185 -10.243282527400106" fill="#ff5507" stroke="none" /><path d="M 106.0420521117495 120.11202640906438 l 2.5506060343439154 8.490137948676232 a29.864989200782134,29.864989200782134 0 0,0 -0.4922603329610559,0.14328980864599977 l -2.4044856890012527 -8.53267145162475" fill="#ff3a05" stroke="none" /><path d="M 105.69591212413111 120.21278271476187 l 4.581877580032579 16.259467128799 a37.8927165805533,37.8927165805533 0 0,0 -0.6276091236107951,0.1710576574939299 l -4.302087055487088 -16.33572528043707" fill="#ffae10" stroke="none" /><path d="M 104.9986988182912 120.39639698878246 l 3.6537241845040023 14.908441509211508 a36.349636108064914,36.349636108064914 0 0,0 -0.6073294539798028,0.14332809746686642 l -3.3972625767843203 -14.968965750324601" fill="#ff990e" stroke="none" /><path d="M 104.29559338865022 120.5559693870025 l 3.7982761233386007 18.176126241609822 a39.56874973335742,39.56874973335742 0 0,0 -0.6660805758994186,0.1332347698543782 l -3.4856990619082238 -18.23865040812706" fill="#ffc512" stroke="none" /><path d="M 103.94208987418118 120.62667999033965 l 1.849071480507714 9.675123329251443 a30.850232320927894,30.850232320927894 0 0,0 -0.5210240888625561,0.09494794521634457 l -1.6827126580941005 -9.70543944839915" fill="#ff4906" stroke="none" /><path d="M 103.58742460773223 120.69131181640829 l 2.5705291329737894 14.826128947458086 a36.04731602612644,36.04731602612644 0 0,0 -0.6106114888118429,0.1004758881190628 l -2.315640141108874 -14.86807083407282" fill="#ff940d" stroke="none" /><path d="M 101.08105385017728 120.97215588758144 l 0.5533132974336142 10.734130151376375 a31.748381539180876,31.748381539180876 0 0,0 -0.5445213891918637,0.023384091383232997 l -0.3689661476409211 -10.742046811185439" fill="#ff5608" stroke="none" /><path d="M 100.72087961077811 120.9876233191556 l 0.6815884920847591 19.84370526876963 a40.85540736591264,40.85540736591264 0 0,0 -0.7011307077567132,0.01805863994997383 l -0.340844470257302 -19.852481626069647" fill="#ffd714" stroke="none" /><line stroke="#e1ed5e" stroke-width="0.3" x1="101.45913802915013" x2="101.54496967792366" y1="184.9874750549273" y2="189.98673829345242" /><path d="M 101.47630435890484 185.9873277026323 a86.0,86.0 0 0,1 -42.54439059252881,-10.42667462771756" fill="none" id="id79" stroke="none" /><text fill="#e1ed5e" style="font-size:6.75px; font-family:Arial;" text-anchor="middle"><textPath startOffset="22.145653131862474" xlink:href="#id79">July</textPath></text><path d="M 100.0 121.0 l 1.947702134181098e-15 15.90419487102048 a36.90419487102048,36.90419487102048 0 0,0 -0.6335095784879133,-0.005437917808379041 l 0.2730166536390593 -15.901851351406535" fill="#ffa00e" stroke="none" /><path d="M 99.27912038922189 120.98762331915562 l -0.50735708841165 14.771148053963858 a35.77985879659484,35.77985879659484 0 0,0 -0.6136658775177588,-0.0263534532223736 l 0.7608487265302475 -14.760262032315655" fill="#ff900d" stroke="none" /><path d="M 97.48249496171623 120.84855314841334 l -2.0568796537985228 17.03391418487196 a38.15765095716172,38.15765095716172 0 0,0 -0.6496288800826326,-0.08410746454997184 l 2.3489863557719497 -16.99609512412159" fill="#ffb210" stroke="none" /><path d="M 96.76829788921471 120.74984581791261 l -3.139125549693465 20.155437885759127 a41.39842605652291,41.39842605652291 0 0,0 -0.7012548326904497,-0.11539121586045113 l 3.4846578854369783 -20.09858067140301" fill="#ffde14" stroke="none" /><path d="M 96.41257539226777 120.69131181640829 l -1.6802649515146617 9.691321727301673 a30.83590398130025,30.83590398130025 0 0,0 -0.5207821000819938,-0.09490384679945227 l 1.8463817851477127 -9.661049706570855" fill="#ff4806" stroke="none" /><path d="M 96.05791012581884 120.62667999033965 l -2.9492171609073674 15.431550406417392 a36.71084433784484,36.71084433784484 0 0,0 -0.6179720234549562,-0.12361171200689448 l 3.2136856698932816 -15.378649297747636" fill="#ff9e0e" stroke="none" /><path d="M 95.70440661134978 120.55596938700252 l -4.13326600197285 19.779174078575878 a41.20642509385746,41.20642509385746 0 0,0 -0.6911643616583298,-0.150636055713218 l 4.4721927802503165 -19.70530656472894" fill="#ffdb14" stroke="none" /><path d="M 95.00130118170881 120.39639698878247 l -2.6741948323999645 10.91162748741605 a32.234541932173656,32.234541932173656 0 0,0 -0.5363132536383833,-0.13632873183821412 l 2.861113379263726 -10.864113523742573" fill="#ff5d08" stroke="none" /><path d="M 94.6519064749342 120.30758222061772 l -3.875255654663251 14.714976928534426 a36.216706358351665,36.216706358351665 0 0,0 -0.5998497175391141,-0.16349170792849343 l 4.12728677313706 -14.64628472646179" fill="#ff970d" stroke="none" /><path d="M 93.95794788825049 120.11202640906438 l -2.4805768749635333 8.257033652848659 a29.62159303011219,29.62159303011219 0 0,0 -0.4857368109134982,-0.15048250566929292 l 2.621954318748665 -8.213234559372717" fill="#ff3605" stroke="none" /><path d="M 93.61358852112213 120.00534299687104 l -6.151269698536268 19.268764719040544 a41.22679936870567,41.22679936870567 0 0,0 -0.6723448277780978,-0.22101309935583827 l 6.4811372639621085 -19.160330698282685" fill="#ffdc14" stroke="none" /><path d="M 93.27111125876986 119.89276391827306 l -5.49590600847264 16.247669555549507 a38.152018797806164,38.152018797806164 0 0,0 -0.6185972469277535,-0.21518023367070302 l 5.774009027445416 -16.150930889310214" fill="#ffb210" stroke="none" /><path d="M 92.93061703081489 119.77432235084164 l -5.778064633065406 16.162275140032964 a38.164066202564264,38.164066202564264 0 0,0 -0.6150063819018163,-0.22583886216036578 l 6.054660166621341 -16.06070542886388" fill="#ffb210" stroke="none" /><path d="M 92.59220618246901 119.65005319985036 l -11.165395589579049 29.61753833015414 a52.6522453454718,52.6522453454718 0 0,0 -0.8430069203401734,-0.3260931866388283 l 11.67217477241275 -29.421505255377273" fill="#93ff23" stroke="none" /><path d="M 92.25597844496254 119.51999308798841 l -13.898940856731233 35.034410419127624 a58.69072127665894,58.69072127665894 0 0,0 -0.9333097399931203,-0.3795689461868195 l 14.498305057914795 -34.79065421636152" fill="#4fff2b" stroke="none" /><path d="M 91.92203290615298 119.3841803445677 l -7.917007567095569 18.997936075622487 a41.58155931777004,41.58155931777004 0 0,0 -0.656523170928223,-0.2802307023883659 l 8.241965813194224 -18.85923072357472" fill="#ffe015" stroke="none" /><path d="M 91.26138138417905 119.09545874513695 l -8.060934267663388 17.614596141860144 a40.37143924721197,40.37143924721197 0 0,0 -0.6277014548317232,-0.293795975365737 l 8.362124436366601 -17.473623934923882" fill="#ffd013" stroke="none" /><path d="M 90.93487009805054 118.94263497670748 l -6.857205891239165 14.32892297880231 a36.88519141739545,36.88519141739545 0 0,0 -0.5688043425966761,-0.27823070711313225 l 7.10217048309791 -14.209098521591958" fill="#ffa00e" stroke="none" /><path d="M 90.28995756902619 118.62028667847754 l -6.539380244310573 12.540123868070847 a35.14277909769645,35.14277909769645 0 0,0 -0.5325154930109165,-0.28353450597388774 l 6.753684553108052 -12.426018894374385" fill="#ff870c" stroke="none" /><line stroke="#e1ed5e" stroke-width="0.3" x1="58.13341422392154" x2="55.67067388415222" y1="173.97424548756322" y2="178.32567169271397" /><path d="M 57.64086615596768 174.84453072859336 a86.0,86.0 0 0,1 -31.369924170532247,-30.572349798747897" fill="none" id="id80" stroke="none" /><text fill="#e1ed5e" style="font-size:6.75px; font-family:Arial;" text-anchor="middle"><textPath startOffset="22.145653131862474" xlink:href="#id80">August</textPath></text><path d="M 89.65649057296885 118.27599006163327 l -7.752715899793344 13.698306144045114 a36.740018902113576,36.740018902113576 0 0,0 -0.5462147920091022,-0.315357257201813 l 7.986723159662846 -13.56320198956713" fill="#ff9e0e" stroke="none" /><path d="M 88.1277618465304 117.32195027204791 l -6.982749139742158 10.188039676870085 a33.3513132097785,33.3513132097785 0 0,0 -0.4694672333624651,-0.3277245895497465 l 7.156611464278389 -10.066670271515209" fill="#ff6d0a" stroke="none" /><path d="M 87.54013794807813 116.9041958592261 l -8.249023319571386 11.19138440379842 a34.903002215363955,34.903002215363955 0 0,0 -0.4792464936590999,-0.3596355033698427 l 8.43992280214125 -11.048129873164562" fill="#ff840c" stroke="none" /><path d="M 87.2517909369889 116.68781488649013 l -7.3360138744631405 9.603077650881277 a33.084543844728735,33.084543844728735 0 0,0 -0.4483586744995032,-0.3486464171640109 l 7.4997824935978725 -9.475730182096472" fill="#ff6a09" stroke="none" /><path d="M 86.68645165197938 116.24036423190432 l -9.806351786176467 11.962154688638595 a36.46795656023008,36.46795656023008 0 0,0 -0.4807269693590888,-0.40103953548649146 l 10.01025308969745 -11.792052969240233" fill="#ff9a0e" stroke="none" /><path d="M 86.13680546590413 115.77377054828092 l -11.076039985814171 12.602500303239943 a37.778011671843515,37.778011671843515 0 0,0 -0.4834415692047261,-0.43229643223151215 l 11.290746581842269 -12.410508341125048" fill="#ffad10" stroke="none" /><path d="M 85.86807049272751 115.53346607816431 l -27.104316696759454 29.79239202716589 a61.276923992511776,61.276923992511776 0 0,0 -0.7720023711369279,-0.7145538693981568 l 27.61174883921035 -29.322720411635355" fill="#34ff2f" stroke="none" /><path d="M 85.60350026404147 115.28858382429668 l -16.88855927542787 17.93506469555678 a45.635137101981954,45.635137101981954 0 0,0 -0.5657181809025963,-0.5419452202417121 l 17.19394994219578 -17.642507345009484" fill="#e9ff1a" stroke="none" /><path d="M 85.08716467003676 114.78537596483092 l -7.984941601687967 7.916694647661396 a32.24425838046591,32.24425838046591 0 0,0 -0.3863371902680403,-0.3964159916638566 l 8.119665593106816 -7.778455963929803" fill="#ff5d08" stroke="none" /><path d="M 84.83555147118756 114.52719865689866 l -8.728801861164849 8.361994729509554 a33.087801197398164,33.087801197398164 0 0,0 -0.3894027162110276,-0.4135321902817177 l 8.87106041111213 -8.210921079283347" fill="#ff6a09" stroke="none" /><path d="M 84.3458050057657 113.99807769240083 l -13.122074039154038 11.733839520535414 a38.60317633220548,38.60317633220548 0 0,0 -0.4374823268152583,-0.4977745803926976 l 13.321567429927889 -11.506852662331417" fill="#ffb811" stroke="none" /><path d="M 83.8745106332314 113.45245675266167 l -20.39409734021728 17.01348134241602 a47.55894865598026,47.55894865598026 0 0,0 -0.517607094713856,-0.6313964938145579 l 20.683151254169765 -16.66088256690297" fill="#d1ff1d" stroke="none" /><path d="M 83.64595745247003 113.17365903436017 l -9.571623771604807 7.710222570708841 a33.29078979215812,33.29078979215812 0 0,0 -0.35467939176004765,-0.44812582502723036 l 9.702569594006418 -7.54477680176693" fill="#ff6d0a" stroke="none" /><path d="M 83.20337586046588 112.60449989151573 l -12.233361412550686 9.180142468892841 a36.2947751601406,36.2947751601406 0 0,0 -0.36968471935300157,-0.5015483218084472 l 12.389148151487516 -8.968787837815514" fill="#ff980e" stroke="none" /><path d="M 82.576782715395 111.72311816256416 l -12.524285704499361 8.426898363099177 a36.095375067547366,36.095375067547366 0 0,0 -0.34148899494818025,-0.5170578628198487 l 12.667099138368268 -8.210660621940267" fill="#ff950d" stroke="none" /><path d="M 82.18462484594161 111.11811171558189 l -21.529630892377984 13.43608200146 a46.37820533276523,46.37820533276523 0 0,0 -0.41570780927102885,-0.6790274647894975 l 21.757106666104416 -13.064517420545947" fill="#dfff1b" stroke="none" /><line stroke="#e1ed5e" stroke-width="0.3" x1="26.387840678322732" x2="22.057713659400548" y1="142.50000000000003" y2="145.00000000000006" /><path d="M 25.521815274538298 143.00000000000003 a86.0,86.0 0 0,1 -11.493303480769221,-40.785679425670985" fill="none" id="id81" stroke="none" /><text fill="#e1ed5e" style="font-size:6.75px; font-family:Arial;" text-anchor="middle"><textPath startOffset="21.40746469413373" xlink:href="#id81">September</textPath></text><path d="M 81.81346652052679 110.50000000000001 l -16.807023322458935 9.703539439497996 a40.407078878995975,40.407078878995975 0 0,0 -0.34166423932662154,-0.6036879732550363 l 16.971120926806936 -9.413594696143837" fill="#ffd113" stroke="none" /><path d="M 81.4637452351635 109.86951160357371 l -4.508632488423543 2.4005928503507006 a26.10789711611571,26.10789711611571 0 0,0 -0.20723694215660388,-0.3974041618003572 l 4.549177499555096 -2.3228424454458407" fill="#ff0000" stroke="none" /><path d="M 81.1358732173502 109.22738970284198 l -25.69625449375261 12.569325728627936 a49.60568901949487,49.60568901949487 0 0,0 -0.3676035302201732,-0.768149995027907 l 25.908237281932692 -12.126363231534924" fill="#b7ff1f" stroke="none" /><path d="M 80.68587082218212 108.24405325689762 l -17.306761513783734 7.38722736658112 a39.817415397991056,39.817415397991056 0 0,0 -0.26293554538363556,-0.6309495905963604 l 17.431022903703855 -7.089045266543478" fill="#ffc912" stroke="none" /><path d="M 80.28708602549918 107.23885506374661 l -14.546107569189717 5.341532183990479 a36.49584497492939,36.49584497492939 0 0,0 -0.21091093048857332,-0.5899554098252159 l 14.635658669722233 -5.091041817784341" fill="#ff9b0e" stroke="none" /><path d="M 80.05021161711548 106.5578916946017 l -12.051696036190286 3.9616318641956942 a33.686130394101085,33.686130394101085 0 0,0 -0.1758661181010346,-0.5508981101163769 l 12.117926870068576 -3.7541647203879256" fill="#ff720a" stroke="none" /><path d="M 79.56144815229197 104.8234425847677 l -13.950539424967413 3.292289318942839 a35.33376151633601,35.33376151633601 0 0,0 -0.13425001853882537,-0.59153035247287 l 14.005000305063906 -3.0523246325309428" fill="#ff8a0c" stroke="none" /><path d="M 79.34024301695615 103.76489593502545 l -16.323436216977775 2.9746738410033546 a37.59226489633321,37.59226489633321 0 0,0 -0.11024411878671209,-0.6358587809272472 l 16.372095153256723 -2.6940220271555146" fill="#ffaa0f" stroke="none" /><path d="M 79.2786578344484 103.40968896794605 l -19.32746896203701 3.180327662738681 a40.587382176311486,40.587382176311486 0 0,0 -0.10722511434074464,-0.6884621521746179 l 19.379215568516024 -2.848077328632613" fill="#ffd313" stroke="none" /><path d="M 79.17382384314188 102.69636545807758 l -13.300792203835748 1.7220538419233644 a34.41180609329336,34.41180609329336 0 0,0 -0.07081935558996254,-0.586485856632171 l 13.32839364568537 -1.4934743083677942" fill="#ff7d0b" stroke="none" /><path d="M 79.0935383218832 101.97986365728391 l -16.35655551546411 1.5489828131611019 a37.42973694512264,37.42973694512264 0 0,0 -0.055086551064298626,-0.6401892244263637 l 16.38073568922615 -1.267972541359076" fill="#ffa80f" stroke="none" /><path d="M 79.03789590574601 101.26102812881392 l -27.322680390057105 1.64366460406515 a48.372075131927204,48.372075131927204 0 0,0 -0.042748039482657936,-0.8293005457330376 l 27.346870018996334 -1.1743922649553815" fill="#c6ff1e" stroke="none" /><line stroke="#e1ed5e" stroke-width="0.3" x1="15.003131293944662" x2="10.003315487706104" y1="100.72959589197737" y2="100.7725132973878" /><path d="M 14.003168132696942 100.73817937305945 a86.0,86.0 0 0,1 10.791469493833604,-42.45332614584628" fill="none" id="id82" stroke="none" /><text fill="#e1ed5e" style="font-size:6.75px; font-family:Arial;" text-anchor="middle"><textPath startOffset="22.145653131862435" xlink:href="#id82">October</textPath></text><path d="M 79.00077361379809 99.81974689727619 l -30.48102459255409 -0.2616429365521254 a51.48214751683573,51.48214751683573 0 0,0 0.01517146625502399,-0.8836618497609348 l 30.472041694700398 0.7848517022821125" fill="#a1ff22" stroke="none" /><path d="M 79.01933749520258 99.09900007780938 l -25.94724443845359 -1.11428632030862 a46.97115954193204,46.97115954193204 0 0,0 0.04151000297524325,-0.8052829682332445 l 25.924292846021775 1.5595410819185764" fill="#d8ff1c" stroke="none" /><path d="M 79.0935383218832 98.0201363427161 l -10.993899042825843 -1.0411336696693412 a32.043087226041735,32.043087226041735 0 0,0 0.05656002766527283,-0.5471669605406063 l 10.974406622678906 1.2297051524928602" fill="#ff5a08" stroke="none" /><path d="M 79.13060592940154 97.66154086499901 l -15.533768962798671 -1.7405912126230583 a36.63098320513038,36.63098320513038 0 0,0 0.07538641297061253,-0.6243076433155987 l 15.50160046356839 2.006992532862093" fill="#ff9c0e" stroke="none" /><path d="M 79.22317932658666 96.9465228501225 l -15.190287027148798 -2.232449086728302 a36.35345722930178,36.35345722930178 0 0,0 0.09603978869985591,-0.6166443377488982 l 15.149725746310676 2.4928816064086496" fill="#ff990e" stroke="none" /><path d="M 79.34024301695615 96.23510406497455 l -15.152501696186956 -2.761290565434111 a36.40204639779091,36.40204639779091 0 0,0 0.11730768801216096,-0.6138033931902873 l 15.102867715892636 3.0209965236577125" fill="#ff990e" stroke="none" /><path d="M 79.407916724674 95.88100663000787 l -33.965200015397585 -6.793991253984207 a55.63803010052936,55.63803010052936 0 0,0 0.1953750335636105,-0.9349402621601919 l 33.84356727100961 7.376047967429808" fill="#71ff27" stroke="none" /><path d="M 79.73907114497095 94.47779374421319 l -10.4560193145707 -2.8498345600388446 a31.837430365463362,31.837430365463362 0 0,0 0.14824342617169037,-0.5260636219097802 l 10.405557396324427 3.0289061058516378" fill="#ff5708" stroke="none" /><path d="M 80.05021161711548 93.44210830539832 l -24.170004249979378 -7.945160474254071 a46.442379613661736,46.442379613661736 0 0,0 0.2554653286784917,-0.7552378510238483 l 24.03005349972852 8.358899999752081" fill="#dfff1b" stroke="none" /><path d="M 80.28708602549916 92.7611449362534 l -10.08876833518583 -3.704735476682645 a31.747479307876766,31.747479307876766 0 0,0 0.1922526301999063,-0.5099729425917556 l 10.023685021171488 3.8773766994685452" fill="#ff5608" stroke="none" /><path d="M 80.5471966667186 92.08871423366112 l -11.323182308028017 -4.6050396690075015 a33.2237820634193,33.2237820634193 0 0,0 0.21939428185470305,-0.526466408767352 l 11.242462181636835 4.798738587216117" fill="#ff6c09" stroke="none" /><path d="M 81.29705330413844 90.45014215332179 l -11.262465978963977 -5.750695377106247 a33.64569639235389,33.64569639235389 0 0,0 0.26706981439639843,-0.5121415835800831 l 11.16208809559264 5.9431832037908165" fill="#ff720a" stroke="none" /><path d="M 81.63589988554816 89.8137432299009 l -11.834101231674586 -6.5641764659254385 a34.5327146071042,34.5327146071042 0 0,0 0.2919932347362338,-0.5159240675275562 l 11.719674631916982 6.7663573035521" fill="#ff7f0b" stroke="none" /><line stroke="#e1ed5e" stroke-width="0.3" x1="26.387840678322718" x2="22.05771365940052" y1="57.49999999999999" y2="54.99999999999999" /><path d="M 25.521815274538284 56.99999999999999 a86.0,86.0 0 0,1 29.574782752854787,-30.34633250058573" fill="none" id="id83" stroke="none" /><text fill="#e1ed5e" style="font-size:6.75px; font-family:Arial;" text-anchor="middle"><textPath startOffset="21.40746469413373" xlink:href="#id83">November</textPath></text><path d="M 82.18462484594161 88.88188828441811 l -18.430337129092614 -11.50189347039427 a42.724890795958174,42.724890795958174 0 0,0 0.3936433569635122,-0.6188727395703594 l 18.230176080503213 11.816579884643302" fill="#fff016" stroke="none" /><path d="M 82.576782715395 88.27688183743585 l -12.842313869177616 -8.640881905440736 a36.478690694572485,36.478690694572485 0 0,0 0.3540348357663618,-0.5165474058423717 l 12.69208929659594 8.860064046353143" fill="#ff9a0e" stroke="none" /><path d="M 83.2033758604659 87.39550010848427 l -22.57466656333647 -16.94045064560639 a49.22400465068782,49.22400465068782 0 0,0 0.5129798135478779,-0.6715070428074053 l 22.280534772434287 17.32547860165468" fill="#bcff1f" stroke="none" /><path d="M 84.34580500576568 86.00192230759919 l -5.64644786286123 -5.049088496695839 a28.57467280583633,28.57467280583633 0 0,0 0.3301086343041574,-0.3628472156214753 l 5.5589415277152066 5.145273287874972" fill="#ff2603" stroke="none" /><path d="M 85.08716467003674 85.21462403516908 l -17.43786364818046 -17.288822974111223 a45.55570175015753,45.55570175015753 0 0,0 0.5553632253423475,-0.5506165596309804 l 17.138508502708138 17.58561954397088" fill="#eaff1a" stroke="none" /><path d="M 85.86807049272753 84.46653392183569 l -10.441681135540351 -11.477236681265376 a36.51630325735105,36.51630325735105 0 0,0 0.46729560839872003,-0.41785861451784684 l 10.24312050031824 11.654790825666625" fill="#ff9b0e" stroke="none" /><path d="M 86.40962598614128 83.9905735841838 l -7.028806431442394 -8.279916302556765 a31.86099138329606,31.86099138329606 0 0,0 0.4199971501877434,-0.3503765604028925 l 6.885634947092742 8.39935504687154" fill="#ff5808" stroke="none" /><path d="M 86.68645165197937 83.75963576809568 l -4.922535494826012 -6.004692910612166 a28.764514965442334,28.764514965442334 0 0,0 0.3845531151263308,-0.3097687684590521 l 4.818731609344436 6.088309972864616" fill="#ff2904" stroke="none" /><path d="M 87.25179093698888 83.31218511350988 l -31.45993354541432 -41.18206288838117 a72.82364057478466,72.82364057478466 0 0,0 0.9999275760179437,-0.7503642945594609 l 30.748352980485624 41.71604621020463" fill="#3effb7" stroke="none" /><path d="M 88.12776184653039 82.6780497279521 l -4.374096303698183 -6.381937228547397 a28.73704344456882,28.73704344456882 0 0,0 0.4093026839708863,-0.2753971123740228 l 4.263897331630307 6.456084014978529" fill="#ff2903" stroke="none" /><line stroke="#e1ed5e" stroke-width="0.3" x1="56.869717070023135" x2="54.33264160355391" y1="26.7553504044142" y2="22.446841604673864" /><path d="M 56.362301976729285 25.89364864446614 a86.0,86.0 0 0,1 42.16139366436587,-11.88097634709845" fill="none" id="id84" stroke="none" /><text fill="#e1ed5e" style="font-size:6.75px; font-family:Arial;" text-anchor="middle"><textPath startOffset="22.145653131862474" xlink:href="#id84">December</textPath></text><path d="M 89.97174638481275 81.54914285379989 l -4.362522832072469 -8.026550649826424 a30.135486894226414,30.135486894226414 0 0,0 0.4566404272123968,-0.24313530711624942 l 4.224093589073511 8.100256424665249" fill="#ff3e05" stroke="none" /><path d="M 90.61103034731259 81.2157712731953 l -4.984951994374388 -9.973243275705729 a32.149678373057526,32.149678373057526 0 0,0 0.49577827764933863,-0.24250999936460665 l 4.813013467462997 10.05734702516755" fill="#ff5c08" stroke="none" /><path d="M 96.41257539226777 79.30868818359171 l -2.615167759096136 -15.083592680678535 a36.30862079237823,36.30862079237823 0 0,0 0.6150377737601858,-0.1012042316229178 l 2.3558524822828777 15.126262910797122" fill="#ff980e" stroke="none" /></svg>