<?xml version="1.0" encoding="utf-8" ?>
<svg baseProfile="full" height="200mm" version="1.1" viewBox="0,0,200,200" width="200mm" xmlns="http://www.w3.org/2000/svg" xmlns:ev="http://www.w3.org/2001/xml-events" xmlns:xlink="http://www.w3.org/1999/xlink"><defs /><rect fill="#1a1a1a" height="200" width="200" x="0" y="0" /><text alignment-baseline="middle" fill="#e1ed5e" style="dominant-baseline: central; font-size:9.0px; font-family:Arial;" text-anchor="middle" x="100.0" y="100.0">2023</text><line stroke="#e1ed5e" stroke-width="0.3" x1="100.0" x2="100.0" y1="15.0" y2="10.0" /><path d="M 100.0 14.0 a86.0,86.0 0 0,1 42.46469731375804,11.215312516191453" fill="none" id="id61" stroke="none" /><text fill="#e1ed5e" style="font-size:6.75px; font-family:Arial;" text-anchor="middle"><textPath startOffset="22.20632615414155" xlink:href="#id61">January</textPath></text><line stroke="#e1ed5e" stroke-width="0.3" x1="143.23703022742887" x2="145.7803849466894" y1="26.81831364943548" y2="22.513508569990506" /><path d="M 143.74570117128098 25.957352633546492 a86.0,86.0 0 0,1 28.547481713284135,27.462654790039103" fill="none" id="id62" stroke="none" /><text fill="#e1ed5e" style="font-size:6.75px; font-family:Arial;" text-anchor="middle"><textPath startOffset="19.985693538727396" xlink:href="#id62">February</textPath></text><line stroke="#e1ed5e" stroke-width="0.3" x1="172.23445277983987" x2="176.4835382374775" y1="55.19839476539836" y2="52.563006222186495" /><path d="M 173.08426987136738 54.67131705675599 a86.0,86.0 0 0,1 12.851231095245387,41.99856678651699" fill="none" id="id63" stroke="none" /><text fill="#e1ed5e" style="font-size:6.75px; font-family:Arial;" text-anchor="middle"><textPath startOffset="22.20632615414155" xlink:href="#id63">March</textPath></text><path d="M 118.3937258080291 89.86733742301442 l 4.3867484735398135 -2.4165545662903574 a26.008322887151213,26.008322887151213 0 0,0 0.2126389710778522,0.39398771914440245 l -4.42769554383613 2.3406858638134964" fill="#ff3505" stroke="none" /><path d="M 118.89224826269711 90.83032412892265 l 17.822423339576087 -8.650418043876869 a40.810817904087074,40.810817904087074 0 0,0 0.3013039485068978,0.6346229576424981 l -17.96868548192474 8.34235267059383" fill="#fff917" stroke="none" /><line stroke="#e1ed5e" stroke-width="0.3" x1="184.98032266829074" x2="189.97916517819016" y1="98.17113171792111" y2="98.06355123074" /><path d="M 185.9800911702706 98.14961562048488 a86.0,86.0 0 0,1 -9.607161424134198,41.387399972396054" fill="none" id="id64" stroke="none" /><text fill="#e1ed5e" style="font-size:6.75px; font-family:Arial;" text-anchor="middle"><textPath startOffset="21.466115282336823" xlink:href="#id64">April</textPath></text><path d="M 120.8583938346157 102.4346265915055 l 18.784113370916675 2.1925131087894476 a39.911637392454,39.911637392454 0 0,0 -0.08552206886416627,0.6816950347615515 l -18.74358979280566 -2.515525897838394" fill="#ffee16" stroke="none" /><path d="M 120.76222939487914 103.15116336523771 l 3.80567875935514 0.5776024943304504 a24.849261677369263,24.849261677369263 0 0,0 -0.06782457546495588,0.42234369616389333 l -3.7951724295288956 -0.6430254201875486" fill="#ff2503" stroke="none" /><path d="M 120.41448212921028 104.9243191809786 l 24.925182321745233 6.012376538356345 a46.640073818365245,46.640073818365245 0 0,0 -0.1949747991283632,0.7788274026929088 l -24.81799620832181 -6.4405317804466495" fill="#c0ff1e" stroke="none" /><path d="M 119.79798401119884 107.00284435728193 l 4.662135924976256 1.6490675129666574 a25.945193125174814,25.945193125174814 0 0,0 -0.15255247116633672,0.4197588819704536 l -4.6330591928046925 -1.7290741919432422" fill="#ff3405" stroke="none" /><line stroke="#e1ed5e" stroke-width="0.3" x1="174.80103733775053" x2="179.2010983576182" y1="140.37084112569926" y2="142.7455964860345" /><path d="M 175.68104954172406 140.8457921977663 a86.0,86.0 0 0,1 -30.038265399797805,32.042727171017184" fill="none" id="id65" stroke="none" /><text fill="#e1ed5e" style="font-size:6.75px; font-family:Arial;" text-anchor="middle"><textPath startOffset="22.206326154141568" xlink:href="#id65">May</textPath></text><path d="M 111.1453310114006 117.79835938074945 l 2.161591148265857 3.451918660085434 a25.07286370114534,25.07286370114534 0 0,0 -0.36776016843880777,0.22590833247127692 l -2.1018517798947403 -3.4886154593850893" fill="#ff2803" stroke="none" /><line stroke="#e1ed5e" stroke-width="0.3" x1="143.8653032363475" x2="146.44561519142675" y1="172.8068346515853" y2="177.08958963109032" /><path d="M 144.38136562736335 173.6633856474863 a86.0,86.0 0 0,1 -40.68145358897372,12.25698825130547" fill="none" id="id66" stroke="none" /><text fill="#e1ed5e" style="font-size:6.75px; font-family:Arial;" text-anchor="middle"><textPath startOffset="21.466115282336833" xlink:href="#id66">June</textPath></text><path d="M 109.2508944713604 118.85261126421891 l 2.315195200912907 4.718189712218998 a26.255610619026047,26.255610619026047 0 0,0 -0.40744623307900746,0.19559895234473162 l -2.2336362998336665 -4.75734294106329" fill="#ff3905" stroke="none" /><line stroke="#e1ed5e" stroke-width="0.3" x1="102.19456741930631" x2="102.32365962044197" y1="184.97166512339345" y2="189.96999836594603" /><path d="M 102.22038585953345 185.97133177190398 a86.0,86.0 0 0,1 -42.740103519485714,-10.115201625700543" fill="none" id="id67" stroke="none" /><text fill="#e1ed5e" style="font-size:6.75px; font-family:Arial;" text-anchor="middle"><textPath startOffset="22.20632615414155" xlink:href="#id67">July</textPath></text><path d="M 100.54218724476979 120.99299961872073 l 0.1307137201689876 5.061116992588459 a26.06280468607155,26.06280468607155 0 0,0 -0.44857848609526324,0.00772268544418592 l -0.0435755441810564 -5.062617155311805" fill="#ff3605" stroke="none" /><path d="M 95.86986931433489 120.58985236759428 l -0.8501857188506877 4.238412720674891 a25.322841443693765,25.322841443693765 0 0,0 -0.42663988207850706,-0.08940653543142725 l 0.9230170623585816 -4.223150204516923" fill="#ff2c04" stroke="none" /><line stroke="#e1ed5e" stroke-width="0.3" x1="58.666819895761336" x2="56.23545636021788" y1="174.27360380694188" y2="178.64263932499728" /><path d="M 58.180547188652646 175.14741091055294 a86.0,86.0 0 0,1 -31.652253787137756,-30.449443065178592" fill="none" id="id68" stroke="none" /><text fill="#e1ed5e" style="font-size:6.75px; font-family:Arial;" text-anchor="middle"><textPath startOffset="22.20632615414155" xlink:href="#id68">August</textPath></text><line stroke="#e1ed5e" stroke-width="0.3" x1="26.63291911575756" x2="22.317208475507996" y1="142.92168965132927" y2="145.44649492493687" /><path d="M 25.769776987707644 143.4266507060508 a86.0,86.0 0 0,1 -11.730757126820373,-40.83630448921669" fill="none" id="id69" stroke="none" /><text fill="#e1ed5e" style="font-size:6.75px; font-family:Arial;" text-anchor="middle"><textPath startOffset="21.46611528233685" xlink:href="#id69">September</textPath></text><line stroke="#e1ed5e" stroke-width="0.3" x1="15.007084014347285" x2="10.007500721073583" y1="101.09737516637583" y2="101.16192664675087" /><path d="M 14.007167355692545 101.11028546245083 a86.0,86.0 0 0,1 10.666146001902534,-42.60595125391555" fill="none" id="id70" stroke="none" /><text fill="#e1ed5e" style="font-size:6.75px; font-family:Arial;" text-anchor="middle"><textPath startOffset="22.20632615414155" xlink:href="#id70">October</textPath></text><path d="M 79.3925641242962 95.95851677861259 l -5.669973884084205 -1.1119823182489221 a26.777984814993474,26.777984814993474 0 0,0 0.09260171958297189,-0.4515588715179017 l 5.649992868586238 1.2094168459302264" fill="#ff4006" stroke="none" /><path d="M 79.62865764111835 94.90015583598534 l -4.066365992949673 -1.0179904943205966 a25.19185365144642,25.19185365144642 0 0,0 0.10892917707322508,-0.41974855427100044 l 4.048240484006141 1.0878354741404608" fill="#ff2a04" stroke="none" /><path d="M 79.81627453868168 94.20196356495316 l -6.8321826823943885 -1.9626329242010698 a28.108491274579144,28.108491274579144 0 0,0 0.1375898640054179,-0.46388462184097357 l 6.797386921277264 2.079946932788583" fill="#ff5307" stroke="none" /><path d="M 80.14247586403 93.16781622104843 l -10.877657707683872 -3.742569115593069 a32.5034890703006,32.5034890703006 0 0,0 0.1865807366836555,-0.527488867836912 l 10.811623890190406 3.9292556098565923" fill="#ff8f0d" stroke="none" /><path d="M 80.38941819471856 92.48833698450439 l -4.412516733633612 -1.6901762060095824 a25.72514545087848,25.72514545087848 0 0,0 0.1619538170875146,-0.41215479934044236 l 4.382769366664406 1.7658800102457883" fill="#ff3104" stroke="none" /><path d="M 80.65960295795068 91.81776055985345 l -6.005052890701342 -2.540525951749342 a27.520347562180444,27.520347562180444 0 0,0 0.18832998157350778,-0.4346915632213976 l 5.960432199285154 2.643516659557339" fill="#ff4b06" stroke="none" /><path d="M 81.43458229118936 90.18545643968196 l -5.652868927428339 -2.9883695157951835 a27.39415979418866,27.39415979418866 0 0,0 0.22396930311319846,-0.4149811036266861 l 5.600591525096669 3.0852316027543423" fill="#ff4906" stroke="none" /><line stroke="#e1ed5e" stroke-width="0.3" x1="26.266209847984243" x2="21.928928074336255" y1="57.711370442889674" y2="55.22380399835377" /><path d="M 25.398753493254645 57.213857153982495 a86.0,86.0 0 0,1 29.58750427330803,-30.492523968695096" fill="none" id="id71" stroke="none" /><text fill="#e1ed5e" style="font-size:6.75px; font-family:Arial;" text-anchor="middle"><textPath startOffset="21.46611528233685" xlink:href="#id71">November</textPath></text><path d="M 81.78341655067845 89.55222093294921 l -5.406034659187612 -3.10052957543556 a27.232053785429674,27.232053785429674 0 0,0 0.2367118077539977,-0.4046172107114377 l 5.351863176963289 3.1931261985008894" fill="#ff4706" stroke="none" /><path d="M 82.34701348167596 88.62581576622439 l -21.418687780198496 -13.800503422172497 a46.479679765079844,46.479679765079844 0 0,0 0.43912975489896344,-0.6688247436718993 l 21.177961389941615 14.167146229822064" fill="#c1ff1e" stroke="none" /><path d="M 83.17141714833178 87.43820079747576 l -3.2858788700795456 -2.4527644979722534 a25.100372377156532,25.100372377156532 0 0,0 0.26143120705801487,-0.3440128238667141 l 3.2431717227974217 2.5089620977199942" fill="#ff2803" stroke="none" /><path d="M 84.31358615837235 86.03803664274999 l -4.794889007557654 -4.267773711792778 a27.419100641824112,27.419100641824112 0 0,0 0.3168294828251097,-0.3498510282167761 l 4.720715884116499 4.34967752727911" fill="#ff4906" stroke="none" /><path d="M 86.10567301691215 84.25364557470407 l -3.1174661598754057 -3.5330050258652443 a25.711763976554575,25.711763976554575 0 0,0 0.3343829614155976,-0.28997360907518677 l 3.0561893998130345 3.586143628360112" fill="#ff3104" stroke="none" /><path d="M 86.65592168130627 83.78471172551755 l -6.498942018229945 -7.897302143162282 a31.227591529617825,31.227591529617825 0 0,0 0.4179985642853125,-0.3379924358003951 l 6.362040055380132 8.00800067622681" fill="#ff7e0b" stroke="none" /><path d="M 87.22198572758235 83.33499621200491 l -4.238508994793579 -5.527836090006327 a27.965768467076874,27.965768467076874 0 0,0 0.3845344384747992,-0.2896233668242626 l 4.142728402560389 5.599976046336444" fill="#ff5107" stroke="none" /><path d="M 87.51073957382395 83.11751280151077 l -37.467781278528136 -50.64746159546771 a84.0,84.0 0 0,0 1.1698187345848732,-0.8499230607333286 l 36.59041722758948 51.284903891017706" fill="#4dd2ff" stroke="none" /><path d="M 88.09926311788651 82.69761687909137 l -10.967536022592743 -15.945610094151174 a40.35327692360044,40.35327692360044 0 0,0 0.5756977300773148,-0.3887136772075012 l 10.691433598108889 16.132035683657342" fill="#fff417" stroke="none" /><path d="M 88.39885842347998 82.49532879139004 l -4.1210867995982365 -6.218204387326253 a28.45985403425471,28.45985403425471 0 0,0 0.41067972446406,-0.26711751659115246 l 4.01344004934989 6.28822082807694" fill="#ff5808" stroke="none" /><path d="M 88.70189139769569 82.29822771554957 l -3.428792900964265 -5.372201071870593 a27.373159743354194,27.373159743354194 0 0,0 0.399362470686613,-0.2500807425063747 l 3.3358112779054094 5.430426155699898" fill="#ff4906" stroke="none" /><line stroke="#e1ed5e" stroke-width="0.3" x1="56.762969772571076" x2="54.21961505331055" y1="26.818313649435495" y2="22.513508569990535" /><path d="M 56.25429882871897 25.957352633546506 a86.0,86.0 0 0,1 42.265352541879196,-11.944610805530505" fill="none" id="id72" stroke="none" /><text fill="#e1ed5e" style="font-size:6.75px; font-family:Arial;" text-anchor="middle"><textPath startOffset="22.20632615414155" xlink:href="#id72">December</textPath></text><path d="M 89.63071344664047 81.73862282372117 l -7.483187324461207 -13.178660413088968 a36.15503819911039,36.15503819911039 0 0,0 0.5438336012275706,-0.30264281028699813 l 7.255229634161591 13.305518620936152" fill="#ffbf11" stroke="none" /><path d="M 90.26544431104013 81.39251694778311 l -3.045350076961458 -5.82114908535517 a27.569622041273036,27.569622041273036 0 0,0 0.42239222632958373,-0.21636570412909067 l 2.9446973630431104 5.872707314796766" fill="#ff4b07" stroke="none" /><path d="M 90.91171255644093 81.06846463323043 l -4.667127210998712 -9.721950852121555 a31.784173810483196,31.784173810483196 0 0,0 0.49526067650621197,-0.23253152834031438 l 4.4990883231928915 9.800847363101878" fill="#ff850c" stroke="none" /><path d="M 91.90106846888425 80.62456947434976 l -4.983554057520611 -11.922375814802137 a33.92202987589833,33.92202987589833 0 0,0 0.5406785988460971,-0.2205563761004469 l 4.777591589086133 12.00639307708616" fill="#ffa20e" stroke="none" /><path d="M 92.91201910852362 80.23233633223022 l -2.1405339888970483 -5.969733357045339 a27.341892628533166,27.341892628533166 0 0,0 0.4443942855756082,-0.1550404403267988 l 2.037457699258155 6.005694650544347" fill="#ff4806" stroke="none" /><path d="M 93.59665428221793 80.00007090966166 l -1.707890335561485 -5.334349746328398 a26.60108709220435,26.60108709220435 0 0,0 0.4372897317154652,-0.1358680482613351 l 1.6158152311352911 5.362957929472258" fill="#ff3e05" stroke="none" /><path d="M 94.63758080256005 79.69619591428918 l -3.734549982425973 -14.14017972106159 a35.62503149108265,35.62503149108265 0 0,0 0.594244374840154,-0.15148612254969415 l 3.4905967189008194 14.202368839780148" fill="#ffb811" stroke="none" /><path d="M 95.692805502759 79.44645832069477 l -1.3621106533587952 -6.499868557960124 a27.641056896515202,27.641056896515202 0 0,0 0.4665199543788121,-0.0935795140565221 l 1.2500242895128468 6.522352028093856" fill="#ff4c07" stroke="none" /><path d="M 96.75951476605007 79.25152402106235 l -1.644524463595902 -10.529712023437728 a31.657358772599075,31.657358772599075 0 0,0 0.5391263568943174,-0.07945321067671948 l 1.4630291262729358 10.556459718275418" fill="#ff830c" stroke="none" /><path d="M 99.27714615592234 79.0124445844662 l -0.045487682702782674 -1.3207030290708415 a22.321486140780358,22.321486140780358 0 0,0 0.38411383591165105,-0.009920527135397218 l 0.02274721159625259 1.3212903483485983" fill="#ff0000" stroke="none" /></svg>