<?xml version="1.0" encoding="utf-8" ?>
<svg baseProfile="full" height="200mm" version="1.1" viewBox="0,0,200,200" width="200mm" xmlns="http://www.w3.org/2000/svg" xmlns:ev="http://www.w3.org/2001/xml-events" xmlns:xlink="http://www.w3.org/1999/xlink"><defs /><rect fill="#1a1a1a" height="200" width="200" x="0" y="0" /><text alignment-baseline="middle" fill="#e1ed5e" style="dominant-baseline: central; font-size:9.0px; font-family:Arial;" text-anchor="middle" x="100.0" y="100.0">2018</text><line stroke="#e1ed5e" stroke-width="0.3" x1="100.0" x2="100.0" y1="15.0" y2="10.0" /><path d="M 100.0 14.0 a86.0,86.0 0 0,1 42.46469731375804,11.215312516191453" fill="none" id="id1" stroke="none" /><text fill="#e1ed5e" style="font-size:6.75px; font-family:Arial;" text-anchor="middle"><textPath startOffset="22.20632615414155" xlink:href="#id1">January</textPath></text><line stroke="#e1ed5e" stroke-width="0.3" x1="143.23703022742887" x2="145.7803849466894" y1="26.81831364943548" y2="22.513508569990506" /><path d="M 143.74570117128098 25.957352633546492 a86.0,86.0 0 0,1 28.547481713284135,27.462654790039103" fill="none" id="id2" stroke="none" /><text fill="#e1ed5e" style="font-size:6.75px; font-family:Arial;" text-anchor="middle"><textPath startOffset="19.985693538727396" xlink:href="#id2">February</textPath></text><line stroke="#e1ed5e" stroke-width="0.3" x1="172.23445277983987" x2="176.4835382374775" y1="55.19839476539836" y2="52.563006222186495" /><path d="M 173.08426987136738 54.67131705675599 a86.0,86.0 0 0,1 12.851231095245387,41.99856678651699" fill="none" id="id3" stroke="none" /><text fill="#e1ed5e" style="font-size:6.75px; font-family:Arial;" text-anchor="middle"><textPath startOffset="22.20632615414155" xlink:href="#id3">March</textPath></text><line stroke="#e1ed5e" stroke-width="0.3" x1="184.98032266829074" x2="189.97916517819016" y1="98.17113171792111" y2="98.06355123074" /><path d="M 185.9800911702706 98.14961562048488 a86.0,86.0 0 0,1 -9.607161424134198,41.387399972396054" fill="none" id="id4" stroke="none" /><text fill="#e1ed5e" style="font-size:6.75px; font-family:Arial;" text-anchor="middle"><textPath startOffset="21.466115282336823" xlink:href="#id4">April</textPath></text><path d="M 120.02730092923936 106.31721596034902 l 9.140710755027845 2.8832564145621475 a30.58466278275848,30.58466278275848 0 0,0 -0.16269256347091035,0.5007162242152643 l -9.089725940540688 -3.040171538755207" fill="#ff6809" stroke="none" /><path d="M 119.9155931802556 106.66101706037122 l 13.512498669523163 4.519422713212003 a35.24825610222394,35.24825610222394 0 0,0 -0.1974056243277501,0.5737531478209182 l -13.432702214252181 -4.751348564122222" fill="#ffa80f" stroke="none" /><path d="M 119.12269723197855 108.67885076344098 l 12.146671481259807 5.512776141333658 a34.33912773977774,34.33912773977774 0 0,0 -0.248918422741602,0.5361481377629508 l -12.049978441678373 -5.7210443463754395" fill="#ff9c0e" stroke="none" /><line stroke="#e1ed5e" stroke-width="0.3" x1="174.80103733775053" x2="179.2010983576182" y1="140.37084112569926" y2="142.7455964860345" /><path d="M 175.68104954172406 140.8457921977663 a86.0,86.0 0 0,1 -30.038265399797805,32.042727171017184" fill="none" id="id5" stroke="none" /><text fill="#e1ed5e" style="font-size:6.75px; font-family:Arial;" text-anchor="middle"><textPath startOffset="22.206326154141568" xlink:href="#id5">May</textPath></text><path d="M 118.30583269289576 110.29060199501025 l 3.7780738261558584 2.123839691150664 a25.33411315837403,25.33411315837403 0 0,0 -0.21696617527539547,0.37829881472599125 l -3.740955654728084 -2.1885583517349705" fill="#ff1d02" stroke="none" /><path d="M 117.94076556474637 110.91462005526583 l 11.58294462373283 7.046713766643831 a34.55805225928374,34.55805225928374 0 0,0 -0.31354909236171413,0.5055409730915507 l -11.459930891703152 -7.245051071100655" fill="#ff9f0e" stroke="none" /><path d="M 117.55443506779139 111.5257021239791 l 36.91100733714346 24.234632104139113 a65.15585868110401,65.15585868110401 0 0,0 -0.6236250123428484,0.932234778899756 l -36.48837921938989 -24.866403797244676" fill="#35ff66" stroke="none" /><path d="M 115.07121518719521 114.62390073753431 l 6.545073913324299 6.350815779579655 a30.11980556794037,30.11980556794037 0 0,0 -0.3642479521658541,0.3689812524669889 l -6.43478533610291 -6.462537526027309" fill="#ff6209" stroke="none" /><path d="M 113.48314897796784 116.09983520530334 l 9.37034835667554 11.188859857980946 a35.59431441510664,35.59431441510664 0 0,0 -0.47311601939183634,0.38934227438487107 l -9.176362208739013 -11.348497251222994" fill="#ffad10" stroke="none" /><line stroke="#e1ed5e" stroke-width="0.3" x1="143.8653032363475" x2="146.44561519142675" y1="172.8068346515853" y2="177.08958963109032" /><path d="M 144.38136562736335 173.6633856474863 a86.0,86.0 0 0,1 -40.68145358897372,12.25698825130547" fill="none" id="id6" stroke="none" /><text fill="#e1ed5e" style="font-size:6.75px; font-family:Arial;" text-anchor="middle"><textPath startOffset="21.466115282336833" xlink:href="#id6">June</textPath></text><path d="M 110.8373102113329 117.98757091392108 l 11.587886629982277 19.23336403910577 a43.45442960331188,43.45442960331188 0 0,0 -0.6440197446993359,0.3804982169341783 l -11.255099014254558 -19.429980828333694" fill="#edff1a" stroke="none" /><path d="M 109.2508944713604 118.85261126421891 l 7.9266999650477565 16.15400473022228 a38.99401125819176,38.99401125819176 0 0,0 -0.6051263949000477,0.2904974430224815 l -7.6474609021474755 -16.28805644974432" fill="#ffd914" stroke="none" /><path d="M 108.59647513512805 119.15986991738527 l 8.717458488329273 19.42951826430276 a42.29554560180647,42.29554560180647 0 0,0 -0.6668181287061092,0.2923134716463309 l -8.381719684965411 -19.576696289243547" fill="#fbff18" stroke="none" /><path d="M 107.2578585660854 119.70592522655815 l 7.700273510207655 20.9071329558908 a43.280090227988325,43.280090227988325 0 0,0 -0.7013032437506946,0.2514623920347261 l -7.339250705827226 -21.036582888965484" fill="#efff19" stroke="none" /><path d="M 106.2309692047433 120.05430185196036 l 4.04843680812949 13.029846739895804 a34.64429355645029,34.64429355645029 0 0,0 -0.5710122377488563,0.17204130314891947 l -3.823549595940388 -13.097603412150448" fill="#ffa00e" stroke="none" /><path d="M 105.53697534728816 120.25689768951611 l 3.466855679040405 12.683412222348942 a34.148689436644446,34.148689436644446 0 0,0 -0.5683473011223474,0.1501056878546478 l -3.24801793510656 -12.741209259507174" fill="#ff990e" stroke="none" /><path d="M 104.83641907484287 120.43548508189849 l 3.1286778814028664 13.219708462412624 a34.584892974063635,34.584892974063635 0 0,0 -0.5804989480362764,0.1321196706307418 l -2.900658783973728 -13.271604866621052" fill="#ff9f0e" stroke="none" /><path d="M 102.34483914955558 120.86867818915974 l 1.8052624657117091 16.066535502465847 a37.16763852954732,37.16763852954732 0 0,0 -0.6363938703033755,0.06596482671449122 l -1.528435998802731 -16.095229697636096" fill="#ffc112" stroke="none" /><path d="M 101.62511606390274 120.93702456842531 l 1.7224193733465625 22.19062228102321 a43.257368346611045,43.257368346611045 0 0,0 -0.7428675188805093,0.05123249345947911 l -1.3401890936871228 -22.216983118998975" fill="#f0ff19" stroke="none" /><line stroke="#e1ed5e" stroke-width="0.3" x1="102.19456741930631" x2="102.32365962044197" y1="184.97166512339345" y2="189.96999836594603" /><path d="M 102.22038585953345 185.97133177190398 a86.0,86.0 0 0,1 -42.740103519485714,-10.115201625700543" fill="none" id="id7" stroke="none" /><text fill="#e1ed5e" style="font-size:6.75px; font-family:Arial;" text-anchor="middle"><textPath startOffset="22.20632615414155" xlink:href="#id7">July</textPath></text><path d="M 97.2962882734958 120.8252237178851 l -2.382262014902604 18.349271088568276 a39.50326786785014,39.50326786785014 0 0,0 -0.6735709894364328,-0.09335080154305153 l 2.6977615955258676 -18.30554572153262" fill="#ffdf14" stroke="none" /><path d="M 96.22490169976321 120.6578951692458 l -2.3962610886897453 13.112694407239822 a34.32984702923582,34.32984702923582 0 0,0 -0.5803908324846858,-0.11123328438751065 l 2.621619535746126 -13.069503924503842" fill="#ff9c0e" stroke="none" /><path d="M 94.81253420990036 120.34920634021253 l -5.198652803487161 20.393090358529886 a42.04528748538184,42.04528748538184 0 0,0 -0.6997728481371162,-0.18481636932945728 l 5.548916094435767 -20.30058263989685" fill="#ffff18" stroke="none" /><path d="M 93.76903079525671 120.05430185196036 l -8.052128575556845 25.915682087160203 a48.13778459344195,48.13778459344195 0 0,0 -0.7891815109586785,-0.2526709982782543 l 8.497031431606464 -25.77323824222224" fill="#b6ff1f" stroke="none" /><path d="M 92.40401165467489 119.57807347666478 l -6.491986240669222 16.732593291502578 a38.94785679706286,38.94785679706286 0 0,0 -0.6229411538796799,-0.2478811411689562 l 6.77904847059076 -16.618365305927554" fill="#ffd814" stroke="none" /><path d="M 91.7346041902142 119.30500536409082 l -12.407615500285914 28.97974752824373 a52.52419212610664,52.52419212610664 0 0,0 -0.8280797187265933,-0.36300581367002394 l 12.90461589367025 -28.761877161279255" fill="#84ff25" stroke="none" /><line stroke="#e1ed5e" stroke-width="0.3" x1="58.666819895761336" x2="56.23545636021788" y1="174.27360380694188" y2="178.64263932499728" /><path d="M 58.180547188652646 175.14741091055294 a86.0,86.0 0 0,1 -31.652253787137756,-30.449443065178592" fill="none" id="id8" stroke="none" /><text fill="#e1ed5e" style="font-size:6.75px; font-family:Arial;" text-anchor="middle"><textPath startOffset="22.20632615414155" xlink:href="#id8">August</textPath></text><path d="M 87.95078237400918 117.19931262002967 l -13.97670694994357 19.950652373651806 a45.35932813726395,45.35932813726395 0 0,0 -0.635619557044373,-0.45349767720521555 l 14.318053834836828 -19.70711043460237" fill="#d6ff1c" stroke="none" /><path d="M 87.07902340077011 116.55440617244103 l -17.046746852897165 21.84035929129848 a48.70546646854673,48.70546646854673 0 0,0 -0.6564627308394337,-0.5215336957779264 l 17.420167076453957 -21.543691681515423" fill="#afff20" stroke="none" /><path d="M 83.95833913139862 113.55231037782056 l -15.868722051865333 13.406208266575495 a41.773607285355,41.773607285355 0 0,0 -0.4593187152888086,-0.5532789817224795 l 16.09713676704768 -13.131068027739255" fill="#fffc17" stroke="none" /><path d="M 83.28015986056508 112.70617746262583 l -34.359765891557764 26.111570406866715 a64.15562096917867,64.15562096917867 0 0,0 -0.6606157244174017,-0.885002719135887 l 34.80414288267025 -25.51625480822152" fill="#34ff5a" stroke="none" /><line stroke="#e1ed5e" stroke-width="0.3" x1="26.63291911575756" x2="22.317208475507996" y1="142.92168965132927" y2="145.44649492493687" /><path d="M 25.769776987707644 143.4266507060508 a86.0,86.0 0 0,1 -11.730757126820373,-40.83630448921669" fill="none" id="id9" stroke="none" /><text fill="#e1ed5e" style="font-size:6.75px; font-family:Arial;" text-anchor="middle"><textPath startOffset="21.46611528233685" xlink:href="#id9">September</textPath></text><path d="M 81.35079622478065 109.6543875284942 l -13.38931182293158 6.931427563153972 a36.077080591246634,36.077080591246634 0 0,0 -0.28075069049759926,-0.5539477471766803 l 13.506641183215445 -6.699925604274607" fill="#ffb310" stroke="none" /><path d="M 80.58989483394504 108.01547362559985 l -2.1948496425488178 0.9063711541745849 a23.37463126032579,23.37463126032579 0 0,0 -0.15037388456988357,-0.3732156494299314 l 2.210126141376089 -0.8684561369018481" fill="#ff0000" stroke="none" /><path d="M 80.0844068197444 106.66101706037122 l -21.45775958081347 7.1768137334138995 a43.62613757564712,43.62613757564712 0 0,0 -0.2320656012109982,-0.7142244803917698 l 21.578117433040717 -6.806390353044327" fill="#ebff1a" stroke="none" /><path d="M 79.58551787078972 104.9243191809786 l -18.285831119455704 4.410852469915408 a39.81029609656939,39.81029609656939 0 0,0 -0.1549557653843148,-0.6675453817064663 l 18.359047450770575 -4.095438430860368" fill="#ffe315" stroke="none" /><path d="M 79.35854240842038 103.8639653848113 l -25.98014807870076 4.863338377291852 a47.431423615901934,47.431423615901934 0 0,0 -0.14331869396885713,-0.803807347187111 l 26.060013215008805 -4.415412279371527" fill="#beff1f" stroke="none" /><path d="M 79.1416061653843 102.43462659150553 l -22.179151065473427 2.5887875830308262 a43.32972375859463,43.32972375859463 0 0,0 -0.08009334061446835,-0.7415648614550121 l 22.220426707588945 -2.2066263996910322" fill="#efff19" stroke="none" /><path d="M 79.07016306316243 101.71520430193888 l -24.750045794103688 2.0282711780001668 a45.833015338088444,45.833015338088444 0 0,0 -0.05766980914393326,-0.7868587268922328 l 24.781292161911956 -1.6019393146111733" fill="#d1ff1d" stroke="none" /><path d="M 79.0235259727143 100.99374915477108 l -18.682100586113034 0.8850544492200533 a39.703053325265614,39.703053325265614 0 0,0 -0.02646466980232171,-0.6829355344810731 l 18.694567388766554 -0.5633416677249834" fill="#ffe215" stroke="none" /><line stroke="#e1ed5e" stroke-width="0.3" x1="15.007084014347285" x2="10.007500721073583" y1="101.09737516637583" y2="101.16192664675087" /><path d="M 14.007167355692545 101.11028546245083 a86.0,86.0 0 0,1 10.666146001902534,-42.60595125391555" fill="none" id="id10" stroke="none" /><text fill="#e1ed5e" style="font-size:6.75px; font-family:Arial;" text-anchor="middle"><textPath startOffset="22.20632615414155" xlink:href="#id10">October</textPath></text><path d="M 79.26566170972629 96.67025291283419 l -13.434113671091387 -2.157397079122337 a34.60624019649845,34.60624019649845 0 0,0 0.09951459167859869,-0.5873407532851477 l 13.394987217892565 2.3883236207233125" fill="#ff9f0e" stroke="none" /><path d="M 79.3925641242962 95.95851677861259 l -10.543912154628027 -2.0678479514742927 a31.744769828848316,31.744769828848316 0 0,0 0.1097775017136858,-0.53531408504213 l 10.506755356999347 2.249037692679825" fill="#ff780b" stroke="none" /><path d="M 79.62865764111835 94.90015583598534 l -3.9326824214613594 -0.9845236088366328 a25.054044617962152,25.054044617962152 0 0,0 0.10833329299028321,-0.4174523698230099 l 3.915152796600769 1.0520724042085066" fill="#ff1902" stroke="none" /><path d="M 79.81627453868168 94.20196356495316 l -12.179035489281985 -3.498585612746106 a33.67158264538823,33.67158264538823 0 0,0 0.1648209586124619,-0.5556943355536564 l 12.117008633557814 3.707709335046302" fill="#ff930d" stroke="none" /><path d="M 80.02781315780177 93.51064311812611 l -37.24182857531743 -12.1006036278501 a60.158375908503515,60.158375908503515 0 0,0 0.3284724849506678,-0.9820909212354662 l 37.028018796594985 12.739867652007888" fill="#34ff2f" stroke="none" /><path d="M 80.95270993114464 91.15688171328213 l -57.141870206566075 -26.529354860153617 a84.0,84.0 0 0,0 0.6201672246329939,-1.3062303374378712 l 56.676744788091334 27.50902761323202" fill="#4dd2ff" stroke="none" /><line stroke="#e1ed5e" stroke-width="0.3" x1="26.266209847984243" x2="21.928928074336255" y1="57.711370442889674" y2="55.22380399835377" /><path d="M 25.398753493254645 57.213857153982495 a86.0,86.0 0 0,1 29.58750427330803,-30.492523968695096" fill="none" id="id11" stroke="none" /><text fill="#e1ed5e" style="font-size:6.75px; font-family:Arial;" text-anchor="middle"><textPath startOffset="21.46611528233685" xlink:href="#id11">November</textPath></text><path d="M 81.96595687620814 89.24020034530311 l -8.377494606890734 -4.9983335938422115 a30.75529367081355,30.75529367081355 0 0,0 0.2751635142768461,-0.452296468096558 l 8.290215294327671 5.1417978351458435" fill="#ff6b09" stroke="none" /><line stroke="#e1ed5e" stroke-width="0.3" x1="56.762969772571076" x2="54.21961505331055" y1="26.818313649435495" y2="22.513508569990535" /><path d="M 56.25429882871897 25.957352633546506 a86.0,86.0 0 0,1 42.265352541879196,-11.944610805530505" fill="none" id="id12" stroke="none" /><text fill="#e1ed5e" style="font-size:6.75px; font-family:Arial;" text-anchor="middle"><textPath startOffset="22.20632615414155" xlink:href="#id12">December</textPath></text><path d="M 89.63071344664047 81.73862282372117 l -24.896887364630857 -43.845972270247756 a71.42146650753477,71.42146650753477 0 0,0 1.0743009901370444,-0.5978473378902663 l 24.138462285421767 44.26803500569821" fill="#3dffad" stroke="none" /></svg>