<?xml version="1.0" encoding="utf-8" ?>
<svg baseProfile="full" height="200mm" version="1.1" viewBox="0,0,200,200" width="200mm" xmlns="http://www.w3.org/2000/svg" xmlns:ev="http://www.w3.org/2001/xml-events" xmlns:xlink="http://www.w3.org/1999/xlink"><defs /><rect fill="#1a1a1a" height="200" width="200" x="0" y="0" /><text alignment-baseline="middle" fill="#e1ed5e" style="dominant-baseline: central; font-size:9.0px; font-family:Arial;" text-anchor="middle" x="100.0" y="100.0">2021</text><line stroke="#e1ed5e" stroke-width="0.3" x1="100.0" x2="100.0" y1="15.0" y2="10.0" /><path d="M 100.0 14.0 a86.0,86.0 0 0,1 42.46469731375804,11.215312516191453" fill="none" id="id37" stroke="none" /><text fill="#e1ed5e" style="font-size:6.75px; font-family:Arial;" text-anchor="middle"><textPath startOffset="22.20632615414155" xlink:href="#id37">January</textPath></text><line stroke="#e1ed5e" stroke-width="0.3" x1="143.23703022742887" x2="145.7803849466894" y1="26.81831364943548" y2="22.513508569990506" /><path d="M 143.74570117128098 25.957352633546492 a86.0,86.0 0 0,1 28.547481713284135,27.462654790039103" fill="none" id="id38" stroke="none" /><text fill="#e1ed5e" style="font-size:6.75px; font-family:Arial;" text-anchor="middle"><textPath startOffset="19.985693538727396" xlink:href="#id38">February</textPath></text><line stroke="#e1ed5e" stroke-width="0.3" x1="172.23445277983987" x2="176.4835382374775" y1="55.19839476539836" y2="52.563006222186495" /><path d="M 173.08426987136738 54.67131705675599 a86.0,86.0 0 0,1 12.851231095245387,41.99856678651699" fill="none" id="id39" stroke="none" /><text fill="#e1ed5e" style="font-size:6.75px; font-family:Arial;" text-anchor="middle"><textPath startOffset="22.20632615414155" xlink:href="#id39">March</textPath></text><path d="M 118.03404312379186 89.2402003453031 l 5.538351801671714 -3.304392442346975 a27.449213137439337,27.449213137439337 0 0,0 0.23859944293531166,0.407843791122238 l -5.594410919077354 3.2085692388708416" fill="#ff1f03" stroke="none" /><path d="M 118.3937258080291 89.86733742301442 l 5.392464019910957 -2.9705791497904106 a27.156541942617118,27.156541942617118 0 0,0 0.22202658594197222,0.41138154375600944 l -5.442798705071393 2.8773166227019424" fill="#ff1a02" stroke="none" /><path d="M 120.53481517161879 95.60439243477599 l 61.60444551485638 -13.186822695672053 a84.0,84.0 0 0,0 0.2904828163400124,1.4164973753463528 l -61.822307627111385 12.124449664162288" fill="#4dd2ff" stroke="none" /><line stroke="#e1ed5e" stroke-width="0.3" x1="184.98032266829074" x2="189.97916517819016" y1="98.17113171792111" y2="98.06355123074" /><path d="M 185.9800911702706 98.14961562048488 a86.0,86.0 0 0,1 -9.607161424134198,41.387399972396054" fill="none" id="id40" stroke="none" /><text fill="#e1ed5e" style="font-size:6.75px; font-family:Arial;" text-anchor="middle"><textPath startOffset="21.466115282336823" xlink:href="#id40">April</textPath></text><line stroke="#e1ed5e" stroke-width="0.3" x1="174.80103733775053" x2="179.2010983576182" y1="140.37084112569926" y2="142.7455964860345" /><path d="M 175.68104954172406 140.8457921977663 a86.0,86.0 0 0,1 -30.038265399797805,32.042727171017184" fill="none" id="id41" stroke="none" /><text fill="#e1ed5e" style="font-size:6.75px; font-family:Arial;" text-anchor="middle"><textPath startOffset="22.206326154141568" xlink:href="#id41">May</textPath></text><line stroke="#e1ed5e" stroke-width="0.3" x1="143.8653032363475" x2="146.44561519142675" y1="172.8068346515853" y2="177.08958963109032" /><path d="M 144.38136562736335 173.6633856474863 a86.0,86.0 0 0,1 -40.68145358897372,12.25698825130547" fill="none" id="id42" stroke="none" /><text fill="#e1ed5e" style="font-size:6.75px; font-family:Arial;" text-anchor="middle"><textPath startOffset="21.466115282336833" xlink:href="#id42">June</textPath></text><path d="M 109.89434966115114 118.52300852407294 l 4.755479786977125 8.902635913110192 a31.09314193924505,31.09314193924505 0 0,0 -0.4742579158178643,0.24810932674255662 l -4.601530968632765 -8.983174658797465" fill="#ff5507" stroke="none" /><path d="M 108.59647513512805 119.15986991738527 l 3.2907889089119586 7.33452798143738 a29.038942240960925,29.038942240960925 0 0,0 -0.457818733609038,0.20069427876182844 l -3.164049500645167 -7.390086813493663" fill="#ff3705" stroke="none" /><path d="M 105.88484417918355 120.15858648285463 l 2.482278983650616 8.50306890766915 a29.85798452252223,29.85798452252223 0 0,0 -0.49460296183812236,0.13977973747090394 l -2.335544853707888 -8.544537438478573" fill="#ff4306" stroke="none" /><path d="M 104.13013068566511 120.58985236759428 l 1.364977066685027 6.804791041054111 a27.940341742665584,27.940341742665584 0 0,0 -0.4723679132657307,0.09053043482248622 l -1.2476415388475919 -6.827278674225066" fill="#ff2603" stroke="none" /><line stroke="#e1ed5e" stroke-width="0.3" x1="102.19456741930631" x2="102.32365962044197" y1="184.97166512339345" y2="189.96999836594603" /><path d="M 102.22038585953345 185.97133177190398 a86.0,86.0 0 0,1 -42.740103519485714,-10.115201625700543" fill="none" id="id43" stroke="none" /><text fill="#e1ed5e" style="font-size:6.75px; font-family:Arial;" text-anchor="middle"><textPath startOffset="22.20632615414155" xlink:href="#id43">July</textPath></text><line stroke="#e1ed5e" stroke-width="0.3" x1="58.666819895761336" x2="56.23545636021788" y1="174.27360380694188" y2="178.64263932499728" /><path d="M 58.180547188652646 175.14741091055294 a86.0,86.0 0 0,1 -31.652253787137756,-30.449443065178592" fill="none" id="id44" stroke="none" /><text fill="#e1ed5e" style="font-size:6.75px; font-family:Arial;" text-anchor="middle"><textPath startOffset="22.20632615414155" xlink:href="#id44">August</textPath></text><path d="M 82.24976979558568 111.22182372390057 l -3.762847014390814 2.378899057038597 a25.451761266879547,25.451761266879547 0 0,0 -0.23092669067000277,-0.37232735401908895 l 3.803238344728773 -2.313775371654244" fill="#ff0000" stroke="none" /><line stroke="#e1ed5e" stroke-width="0.3" x1="26.63291911575756" x2="22.317208475507996" y1="142.92168965132927" y2="145.44649492493687" /><path d="M 25.769776987707644 143.4266507060508 a86.0,86.0 0 0,1 -11.730757126820373,-40.83630448921669" fill="none" id="id45" stroke="none" /><text fill="#e1ed5e" style="font-size:6.75px; font-family:Arial;" text-anchor="middle"><textPath startOffset="21.46611528233685" xlink:href="#id45">September</textPath></text><path d="M 81.35079622478065 109.6543875284942 l -10.886898950756503 5.635969380838827 a33.25922997686787,33.25922997686787 0 0,0 -0.2588222668906772,-0.5106808870501358 l 10.982299887433447 -5.447734282086007" fill="#ff740a" stroke="none" /><path d="M 80.20201598880116 107.00284435728193 l -11.928637602312003 4.219338316273009 a33.65287362121591,33.65287362121591 0 0,0 -0.18847078585541666,-0.5477843249151305 l 11.999499219110648 -4.013381288268582" fill="#ff7a0b" stroke="none" /><path d="M 79.76711848015287 105.62410040840567 l -6.001545257528597 1.6682395486190118 a27.229090517061103,27.229090517061103 0 0,0 -0.1216387314699732,-0.4526629705185707 l 6.029372065340345 -1.564685644924902" fill="#ff1b02" stroke="none" /><path d="M 79.58551787078972 104.9243191809786 l -12.119721131454035 2.9234822053279053 a33.46733285466793,33.46733285466793 0 0,0 -0.13026670701687115,-0.5611855644322091 l 12.168248404401462 -2.7144279835471217" fill="#ff770b" stroke="none" /><path d="M 79.10278846688536 102.07522291339032 l -9.45762668094452 0.939201077784294 a30.50414652142026,30.50414652142026 0 0,0 -0.04739095692783733,-0.5229552606739432 l 9.472392234149432 -0.7762644285617847" fill="#ff4c07" stroke="none" /><path d="M 79.04373962182676 101.35467743843564 l -6.7222722398162755 0.4345484534915456 a27.736302875067036,27.736302875067036 0 0,0 -0.026697709237797743,-0.4767055329475435 l 6.728756299941605 -0.31877120420856453" fill="#ff2303" stroke="none" /><line stroke="#e1ed5e" stroke-width="0.3" x1="15.007084014347285" x2="10.007500721073583" y1="101.09737516637583" y2="101.16192664675087" /><path d="M 14.007167355692545 101.11028546245083 a86.0,86.0 0 0,1 10.666146001902534,-42.60595125391555" fill="none" id="id46" stroke="none" /><text fill="#e1ed5e" style="font-size:6.75px; font-family:Arial;" text-anchor="middle"><textPath startOffset="22.20632615414155" xlink:href="#id46">October</textPath></text><path d="M 79.00175016825051 100.2711162175752 l -39.127397714258734 0.5051883922159573 a60.130658916013786,60.130658916013786 0 0,0 -0.004454544240933926,-1.0350792032146021 l 39.13029655578917 0.16840028920232006" fill="#3dff2e" stroke="none" /><path d="M 79.46518482838121 95.60439243477599 l -7.718387877957322 -1.6521699301473651 a28.893236149557524,28.893236149557524 0 0,0 0.10828856488789582,-0.4854364031386749 l 7.688804926067388 1.7847845028359994" fill="#ff3405" stroke="none" /><path d="M 79.71946130924805 94.55025226153421 l -12.100306775222206 -3.251571395047813 a33.52957064673733,33.52957064673733 0 0,0 0.15457647694447602,-0.5560938313083156 l 12.04254352771137 3.4593765297750707" fill="#ff780b" stroke="none" /><line stroke="#e1ed5e" stroke-width="0.3" x1="26.266209847984243" x2="21.928928074336255" y1="57.711370442889674" y2="55.22380399835377" /><path d="M 25.398753493254645 57.213857153982495 a86.0,86.0 0 0,1 29.58750427330803,-30.492523968695096" fill="none" id="id47" stroke="none" /><text fill="#e1ed5e" style="font-size:6.75px; font-family:Arial;" text-anchor="middle"><textPath startOffset="21.46611528233685" xlink:href="#id47">November</textPath></text><line stroke="#e1ed5e" stroke-width="0.3" x1="56.762969772571076" x2="54.21961505331055" y1="26.818313649435495" y2="22.513508569990535" /><path d="M 56.25429882871897 25.957352633546506 a86.0,86.0 0 0,1 42.265352541879196,-11.944610805530505" fill="none" id="id48" stroke="none" /><text fill="#e1ed5e" style="font-size:6.75px; font-family:Arial;" text-anchor="middle"><textPath startOffset="22.20632615414155" xlink:href="#id48">December</textPath></text></svg>