<?xml version="1.0" encoding="utf-8" ?>
<svg baseProfile="full" height="200mm" version="1.1" viewBox="0,0,200,200" width="200mm" xmlns="http://www.w3.org/2000/svg" xmlns:ev="http://www.w3.org/2001/xml-events" xmlns:xlink="http://www.w3.org/1999/xlink"><defs /><rect fill="#1a1a1a" height="200" width="200" x="0" y="0" /><text alignment-baseline="middle" fill="#e1ed5e" style="dominant-baseline: central; font-size:9.0px; font-family:Arial;" text-anchor="middle" x="100.0" y="100.0">2025</text><line stroke="#e1ed5e" stroke-width="0.3" x1="100.0" x2="100.0" y1="15.0" y2="10.0" /><path d="M 100.0 14.0 a86.0,86.0 0 0,1 42.46469731375804,11.215312516191453" fill="none" id="id85" stroke="none" /><text fill="#e1ed5e" style="font-size:6.75px; font-family:Arial;" text-anchor="middle"><textPath startOffset="22.20632615414155" xlink:href="#id85">January</textPath></text><path d="M 103.59715602781102 79.31037775812273 l 4.532202218115102 -26.06769100134395 a47.45874847923529,47.45874847923529 0 0,0 0.8036458335983977,0.1468611393152131 l -4.9802431728164 25.985814380677997" fill="#ff0000" stroke="none" /><path d="M 103.95276090670814 79.375362276772 l 7.239055301471802 -37.7717996547403 a59.459235182405884,59.459235182405884 0 0,0 1.0035404864780353,0.2013007807687585 l -7.888162197416962 37.64159491789434" fill="#efff19" stroke="none" /><path d="M 104.66035177308747 79.52364482259891 l 8.081292157174552 -35.50706396419187 a57.41509129861991,57.41509129861991 0 0,0 0.9617747204637433,0.2276210026388262 l -8.69129056460082 35.362697049412176" fill="#ffe415" stroke="none" /><path d="M 105.36241919743992 79.69619591428918 l 8.949728631988517 -33.88648482590162 a56.04841646126535,56.04841646126535 0 0,0 0.9306762440815113,0.25438897400627175 l -9.531702765293739 33.72740931106905" fill="#ffc712" stroke="none" /><path d="M 106.0581310904928 79.89281104454417 l 10.626036734232306 -35.26825769718428 a57.83425929311261,57.83425929311261 0 0,0 0.950725346020169,0.2953949929023138 l -11.231547452963193 35.08012256939945" fill="#ffed16" stroke="none" /><path d="M 106.40334571778207 80.00007090966166 l 14.209179557238945 -44.380328050614224 a67.59950967091814,67.59950967091814 0 0,0 1.1051463275245725,0.3643493686453795 l -14.971008707005934 44.12916495770961" fill="#56ff2a" stroke="none" /><path d="M 107.08798089147638 80.2323363322302 l 11.381808525109786 -31.742715774796746 a54.72158907972446,54.72158907972446 0 0,0 0.8839300084596624,0.3255588819078991 l -11.926520859342025 31.542093625082522" fill="#ffaa0f" stroke="none" /><path d="M 107.76421540070413 80.48803036053334 l 15.750682683132752 -39.58247246544552 a63.601128288608635,63.601128288608635 0 0,0 1.0137296928845536,0.4135257949643385 l -16.429696245605694 39.3054857842976" fill="#9eff22" stroke="none" /><path d="M 108.43124777332544 80.76684994638697 l 14.925709492888787 -34.048152545295395 a58.175980089485414,58.175980089485414 0 0,0 0.9136894528206121,0.40994582407232905 l -15.50958106417618 33.78618639070654" fill="#fff417" stroke="none" /><path d="M 108.76106565485865 80.91482961587045 l 23.184658644585255 -50.50563230106632 a76.57290068546409,76.57290068546409 0 0,0 1.1931581680131333,0.5602037583865052 l -24.050595023897987 50.09906356003981" fill="#3dffb0" stroke="none" /><path d="M 109.41281617654863 81.2277094730956 l 13.711752281673688 -27.345800941679855 a51.5909296978036,51.5909296978036 0 0,0 0.790420979324482,0.40488432572739674 l -14.180433748586925 27.105724090639956" fill="#ff6309" stroke="none" /><line stroke="#e1ed5e" stroke-width="0.3" x1="143.23703022742887" x2="145.7803849466894" y1="26.81831364943548" y2="22.513508569990506" /><path d="M 143.74570117128098 25.957352633546492 a86.0,86.0 0 0,1 28.547481713284135,27.462654790039103" fill="none" id="id86" stroke="none" /><text fill="#e1ed5e" style="font-size:6.75px; font-family:Arial;" text-anchor="middle"><textPath startOffset="19.985693538727396" xlink:href="#id86">February</textPath></text><path d="M 110.68208982089419 81.91981866633111 l 23.896956325398484 -40.447263684382925 a67.97920456086932,67.97920456086932 0 0,0 1.0023304971617204,0.6038929093874563 l -24.589648888777845 40.029924165536855" fill="#50ff2b" stroke="none" /><path d="M 110.99172775467656 82.1063720568725 l 32.97518326402967 -53.68088382938249 a84.0,84.0 0 0,0 1.225523390510947,0.7674226347082231 l -33.894325806912875 53.10531685335132" fill="#4dd2ff" stroke="none" /><line stroke="#e1ed5e" stroke-width="0.3" x1="172.23445277983987" x2="176.4835382374775" y1="55.19839476539836" y2="52.563006222186495" /><path d="M 173.08426987136738 54.67131705675599 a86.0,86.0 0 0,1 12.851231095245387,41.99856678651699" fill="none" id="id87" stroke="none" /><text fill="#e1ed5e" style="font-size:6.75px; font-family:Arial;" text-anchor="middle"><textPath startOffset="22.20632615414155" xlink:href="#id87">March</textPath></text><line stroke="#e1ed5e" stroke-width="0.3" x1="184.98032266829074" x2="189.97916517819016" y1="98.17113171792111" y2="98.06355123074" /><path d="M 185.9800911702706 98.14961562048488 a86.0,86.0 0 0,1 -9.607161424134198,41.387399972396054" fill="none" id="id88" stroke="none" /><text fill="#e1ed5e" style="font-size:6.75px; font-family:Arial;" text-anchor="middle"><textPath startOffset="21.466115282336823" xlink:href="#id88">April</textPath></text><line stroke="#e1ed5e" stroke-width="0.3" x1="174.80103733775053" x2="179.2010983576182" y1="140.37084112569926" y2="142.7455964860345" /><path d="M 175.68104954172406 140.8457921977663 a86.0,86.0 0 0,1 -30.038265399797805,32.042727171017184" fill="none" id="id89" stroke="none" /><text fill="#e1ed5e" style="font-size:6.75px; font-family:Arial;" text-anchor="middle"><textPath startOffset="22.206326154141568" xlink:href="#id89">May</textPath></text><line stroke="#e1ed5e" stroke-width="0.3" x1="143.8653032363475" x2="146.44561519142675" y1="172.8068346515853" y2="177.08958963109032" /><path d="M 144.38136562736335 173.6633856474863 a86.0,86.0 0 0,1 -40.68145358897372,12.25698825130547" fill="none" id="id90" stroke="none" /><text fill="#e1ed5e" style="font-size:6.75px; font-family:Arial;" text-anchor="middle"><textPath startOffset="21.466115282336833" xlink:href="#id90">June</textPath></text><line stroke="#e1ed5e" stroke-width="0.3" x1="102.19456741930631" x2="102.32365962044197" y1="184.97166512339345" y2="189.96999836594603" /><path d="M 102.22038585953345 185.97133177190398 a86.0,86.0 0 0,1 -42.740103519485714,-10.115201625700543" fill="none" id="id91" stroke="none" /><text fill="#e1ed5e" style="font-size:6.75px; font-family:Arial;" text-anchor="middle"><textPath startOffset="22.20632615414155" xlink:href="#id91">July</textPath></text><line stroke="#e1ed5e" stroke-width="0.3" x1="58.666819895761336" x2="56.23545636021788" y1="174.27360380694188" y2="178.64263932499728" /><path d="M 58.180547188652646 175.14741091055294 a86.0,86.0 0 0,1 -31.652253787137756,-30.449443065178592" fill="none" id="id92" stroke="none" /><text fill="#e1ed5e" style="font-size:6.75px; font-family:Arial;" text-anchor="middle"><textPath startOffset="22.20632615414155" xlink:href="#id92">August</textPath></text><line stroke="#e1ed5e" stroke-width="0.3" x1="26.63291911575756" x2="22.317208475507996" y1="142.92168965132927" y2="145.44649492493687" /><path d="M 25.769776987707644 143.4266507060508 a86.0,86.0 0 0,1 -11.730757126820373,-40.83630448921669" fill="none" id="id93" stroke="none" /><text fill="#e1ed5e" style="font-size:6.75px; font-family:Arial;" text-anchor="middle"><textPath startOffset="21.46611528233685" xlink:href="#id93">September</textPath></text><line stroke="#e1ed5e" stroke-width="0.3" x1="15.007084014347285" x2="10.007500721073583" y1="101.09737516637583" y2="101.16192664675087" /><path d="M 14.007167355692545 101.11028546245083 a86.0,86.0 0 0,1 10.666146001902534,-42.60595125391555" fill="none" id="id94" stroke="none" /><text fill="#e1ed5e" style="font-size:6.75px; font-family:Arial;" text-anchor="middle"><textPath startOffset="22.20632615414155" xlink:href="#id94">October</textPath></text><line stroke="#e1ed5e" stroke-width="0.3" x1="26.266209847984243" x2="21.928928074336255" y1="57.711370442889674" y2="55.22380399835377" /><path d="M 25.398753493254645 57.213857153982495 a86.0,86.0 0 0,1 29.58750427330803,-30.492523968695096" fill="none" id="id95" stroke="none" /><text fill="#e1ed5e" style="font-size:6.75px; font-family:Arial;" text-anchor="middle"><textPath startOffset="21.46611528233685" xlink:href="#id95">November</textPath></text><line stroke="#e1ed5e" stroke-width="0.3" x1="56.762969772571076" x2="54.21961505331055" y1="26.818313649435495" y2="22.513508569990535" /><path d="M 56.25429882871897 25.957352633546506 a86.0,86.0 0 0,1 42.265352541879196,-11.944610805530505" fill="none" id="id96" stroke="none" /><text fill="#e1ed5e" style="font-size:6.75px; font-family:Arial;" text-anchor="middle"><textPath startOffset="22.20632615414155" xlink:href="#id96">December</textPath></text></svg>