<?xml version="1.0" encoding="utf-8" ?>
<svg baseProfile="full" height="200mm" version="1.1" viewBox="0,0,200,200" width="200mm" xmlns="http://www.w3.org/2000/svg" xmlns:ev="http://www.w3.org/2001/xml-events" xmlns:xlink="http://www.w3.org/1999/xlink"><defs /><rect fill="#1a1a1a" height="200" width="200" x="0" y="0" /><text alignment-baseline="middle" fill="#e1ed5e" style="dominant-baseline: central; font-size:9.0px; font-family:Arial;" text-anchor="middle" x="100.0" y="100.0">2022</text><line stroke="#e1ed5e" stroke-width="0.3" x1="100.0" x2="100.0" y1="15.0" y2="10.0" /><path d="M 100.0 14.0 a86.0,86.0 0 0,1 42.46469731375804,11.215312516191453" fill="none" id="id49" stroke="none" /><text fill="#e1ed5e" style="font-size:6.75px; font-family:Arial;" text-anchor="middle"><textPath startOffset="22.20632615414155" xlink:href="#id49">January</textPath></text><line stroke="#e1ed5e" stroke-width="0.3" x1="143.23703022742887" x2="145.7803849466894" y1="26.81831364943548" y2="22.513508569990506" /><path d="M 143.74570117128098 25.957352633546492 a86.0,86.0 0 0,1 28.547481713284135,27.462654790039103" fill="none" id="id50" stroke="none" /><text fill="#e1ed5e" style="font-size:6.75px; font-family:Arial;" text-anchor="middle"><textPath startOffset="19.985693538727396" xlink:href="#id50">February</textPath></text><line stroke="#e1ed5e" stroke-width="0.3" x1="172.23445277983987" x2="176.4835382374775" y1="55.19839476539836" y2="52.563006222186495" /><path d="M 173.08426987136738 54.67131705675599 a86.0,86.0 0 0,1 12.851231095245387,41.99856678651699" fill="none" id="id51" stroke="none" /><text fill="#e1ed5e" style="font-size:6.75px; font-family:Arial;" text-anchor="middle"><textPath startOffset="22.20632615414155" xlink:href="#id51">March</textPath></text><line stroke="#e1ed5e" stroke-width="0.3" x1="184.98032266829074" x2="189.97916517819016" y1="98.17113171792111" y2="98.06355123074" /><path d="M 185.9800911702706 98.14961562048488 a86.0,86.0 0 0,1 -9.607161424134198,41.387399972396054" fill="none" id="id52" stroke="none" /><text fill="#e1ed5e" style="font-size:6.75px; font-family:Arial;" text-anchor="middle"><textPath startOffset="21.466115282336823" xlink:href="#id52">April</textPath></text><line stroke="#e1ed5e" stroke-width="0.3" x1="174.80103733775053" x2="179.2010983576182" y1="140.37084112569926" y2="142.7455964860345" /><path d="M 175.68104954172406 140.8457921977663 a86.0,86.0 0 0,1 -30.038265399797805,32.042727171017184" fill="none" id="id53" stroke="none" /><text fill="#e1ed5e" style="font-size:6.75px; font-family:Arial;" text-anchor="middle"><textPath startOffset="22.206326154141568" xlink:href="#id53">May</textPath></text><path d="M 117.35343817320211 111.8261652097733 l 4.52717669025989 3.0852179803495923 a26.478494206541146,26.478494206541146 0 0,0 -0.2599167988309059,0.37442953422679875 l -4.473398984266848 -3.1626887767634106" fill="#ff0000" stroke="none" /><line stroke="#e1ed5e" stroke-width="0.3" x1="143.8653032363475" x2="146.44561519142675" y1="172.8068346515853" y2="177.08958963109032" /><path d="M 144.38136562736335 173.6633856474863 a86.0,86.0 0 0,1 -40.68145358897372,12.25698825130547" fill="none" id="id54" stroke="none" /><text fill="#e1ed5e" style="font-size:6.75px; font-family:Arial;" text-anchor="middle"><textPath startOffset="21.466115282336833" xlink:href="#id54">June</textPath></text><line stroke="#e1ed5e" stroke-width="0.3" x1="102.19456741930631" x2="102.32365962044197" y1="184.97166512339345" y2="189.96999836594603" /><path d="M 102.22038585953345 185.97133177190398 a86.0,86.0 0 0,1 -42.740103519485714,-10.115201625700543" fill="none" id="id55" stroke="none" /><text fill="#e1ed5e" style="font-size:6.75px; font-family:Arial;" text-anchor="middle"><textPath startOffset="22.20632615414155" xlink:href="#id55">July</textPath></text><line stroke="#e1ed5e" stroke-width="0.3" x1="58.666819895761336" x2="56.23545636021788" y1="174.27360380694188" y2="178.64263932499728" /><path d="M 58.180547188652646 175.14741091055294 a86.0,86.0 0 0,1 -31.652253787137756,-30.449443065178592" fill="none" id="id56" stroke="none" /><text fill="#e1ed5e" style="font-size:6.75px; font-family:Arial;" text-anchor="middle"><textPath startOffset="22.20632615414155" xlink:href="#id56">August</textPath></text><path d="M 82.85270091963577 112.12312394758628 l -20.896990124988267 14.77415190750485 a46.59218163560673,46.59218163560673 0 0,0 -0.4573557169381456,-0.6588550214506298 l 21.148206749088548 -14.412255623867207" fill="#e0ff1b" stroke="none" /><path d="M 82.05923443525364 110.91462005526583 l -40.211845499857866 24.46367262133078 a68.06871356461836,68.06871356461836 0 0,0 -0.6003632151803094,-1.0062432814698186 l 40.62698959073641 -23.76786724597485" fill="#38ff7e" stroke="none" /><line stroke="#e1ed5e" stroke-width="0.3" x1="26.63291911575756" x2="22.317208475507996" y1="142.92168965132927" y2="145.44649492493687" /><path d="M 25.769776987707644 143.4266507060508 a86.0,86.0 0 0,1 -11.730757126820373,-40.83630448921669" fill="none" id="id57" stroke="none" /><text fill="#e1ed5e" style="font-size:6.75px; font-family:Arial;" text-anchor="middle"><textPath startOffset="21.46611528233685" xlink:href="#id57">September</textPath></text><path d="M 81.87401531095188 110.60418214915194 l -22.810671739795698 13.344848416398431 a47.4274804791786,47.4274804791786 0 0,0 -0.40617798531916033,-0.7082055542482363 l 23.037001721267238 -12.950223016291888" fill="#d5ff1c" stroke="none" /><path d="M 81.18737489456691 109.33194174019688 l -33.81301768036311 16.772837883335452 a58.74451291662407,58.74451291662407 0 0,0 -0.44155381217350886,-0.9097316369964823 l 34.09672474915134 -16.188317290373682" fill="#50ff2b" stroke="none" /><path d="M 80.73074385275274 108.34839909993369 l -57.80776844174178 25.045197299801067 a84.0,84.0 0 0,0 -0.5633960752307736,-1.3317018973353647 l 58.23031549816486 -24.046420876799544" fill="#4dd2ff" stroke="none" /><path d="M 79.29508885075956 103.50808413554451 l -39.83790686955313 6.749834765048286 a61.405681445839306,61.405681445839306 0 0,0 -0.16760313965356893,-1.0436649106124811 l 39.94819176356799 -6.063090624742591" fill="#34ff2f" stroke="none" /><line stroke="#e1ed5e" stroke-width="0.3" x1="15.007084014347285" x2="10.007500721073583" y1="101.09737516637583" y2="101.16192664675087" /><path d="M 14.007167355692545 101.11028546245083 a86.0,86.0 0 0,1 10.666146001902534,-42.60595125391555" fill="none" id="id58" stroke="none" /><text fill="#e1ed5e" style="font-size:6.75px; font-family:Arial;" text-anchor="middle"><textPath startOffset="22.20632615414155" xlink:href="#id58">October</textPath></text><path d="M 79.32604984820605 96.31383870115002 l -11.37603318312279 -2.0283445082420153 a32.555445141907185,32.555445141907185 0 0,0 0.10311437459076994,-0.5508411122325814 l 11.339433084622158 2.223863697937169" fill="#ff5d08" stroke="none" /><path d="M 79.46518482838121 95.60439243477599 l -9.492695000517415 -2.0319716349971473 a30.70773748606138,30.70773748606138 0 0,0 0.11508910964861763,-0.5159219118481672 l 9.45631150386676 2.1950717163952738" fill="#ff4106" stroke="none" /><path d="M 79.54389044137918 95.25157060432595 l -22.289440137811106 -5.173996182421457 a43.88207547738571,43.88207547738571 0 0,0 0.17713145985531223,-0.7343242565804935 l 22.197075877694978 5.556905670661347" fill="#fffb17" stroke="none" /><path d="M 80.14247586403 93.16781622104843 l -9.6818970665935 -3.331155467062343 a31.238931953766034,31.238931953766034 0 0,0 0.17932176218183296,-0.5069667694162404 l 9.623122223601856 3.4973198629051945" fill="#ff4906" stroke="none" /><line stroke="#e1ed5e" stroke-width="0.3" x1="26.266209847984243" x2="21.928928074336255" y1="57.711370442889674" y2="55.22380399835377" /><path d="M 25.398753493254645 57.213857153982495 a86.0,86.0 0 0,1 29.58750427330803,-30.492523968695096" fill="none" id="id59" stroke="none" /><text fill="#e1ed5e" style="font-size:6.75px; font-family:Arial;" text-anchor="middle"><textPath startOffset="21.46611528233685" xlink:href="#id59">November</textPath></text><path d="M 82.54541684631803 88.32363383020206 l -40.6234396372756 -27.17533567574513 a69.8749702511705,69.8749702511705 0 0,0 0.6773730669172812,-0.9939613922547877 l 40.14964210468958 27.870575091270336" fill="#3aff93" stroke="none" /><line stroke="#e1ed5e" stroke-width="0.3" x1="56.762969772571076" x2="54.21961505331055" y1="26.818313649435495" y2="22.513508569990535" /><path d="M 56.25429882871897 25.957352633546506 a86.0,86.0 0 0,1 42.265352541879196,-11.944610805530505" fill="none" id="id60" stroke="none" /><text fill="#e1ed5e" style="font-size:6.75px; font-family:Arial;" text-anchor="middle"><textPath startOffset="22.20632615414155" xlink:href="#id60">December</textPath></text></svg>