<?xml version="1.0" encoding="utf-8" ?>
<svg baseProfile="full" height="200mm" version="1.1" viewBox="0,0,200,200" width="200mm" xmlns="http://www.w3.org/2000/svg" xmlns:ev="http://www.w3.org/2001/xml-events" xmlns:xlink="http://www.w3.org/1999/xlink"><defs /><rect fill="#1a1a1a" height="200" width="200" x="0" y="0" /><text alignment-baseline="middle" fill="#e1ed5e" style="dominant-baseline: central; font-size:9.0px; font-family:Arial;" text-anchor="middle" x="100.0" y="100.0">2025</text><line stroke="#e1ed5e" stroke-width="0.3" x1="100.0" x2="100.0" y1="15.0" y2="10.0" /><path d="M 100.0 14.0 a86.0,86.0 0 0,1 42.46469731375804,11.215312516191453" fill="none" id="id85" stroke="none" /><text fill="#e1ed5e" style="font-size:6.75px; font-family:Arial;" text-anchor="middle"><textPath startOffset="22.20632615414155" xlink:href="#id85">January</textPath></text><path d="M 103.59715602781102 79.31037775812273 l 3.529066360136682 -20.2979935519162 a41.602496247005604,41.602496247005604 0 0,0 0.704478601892069,0.12873896158187456 l -3.877940083131652 20.234239108983587" fill="#ff2603" stroke="none" /><path d="M 103.95276090670814 79.375362276772 l 5.636797590690478 -29.4115710438896 a50.94685289555781,50.94685289555781 0 0,0 0.8598702856248922,0.17248189005669448 l -6.142234285782496 29.3101851977557" fill="#ffd614" stroke="none" /><path d="M 104.66035177308747 79.52364482259891 l 6.292617788396489 -27.648101067159537 a49.355149995207434,49.355149995207434 0 0,0 0.8267606045107474,0.195667523523886 l -6.767602079869761 27.53568763149478" fill="#ffba11" stroke="none" /><path d="M 105.36241919743992 79.69619591428918 l 6.968838707430472 -26.386213127115692 a48.29096839835028,48.29096839835028 0 0,0 0.8018648862826581,0.21917996404261447 l -7.422001482936841 26.26234662224678" fill="#ffa60f" stroke="none" /><path d="M 106.0581310904928 79.89281104454417 l 8.274120830370133 -27.462151031629837 a49.68154136024793,49.68154136024793 0 0,0 0.8167045135159535,0.2537540678632699 l -8.745610716596804 27.315656828884045" fill="#ffc011" stroke="none" /><path d="M 106.40334571778207 80.00007090966166 l 11.064188040896523 -34.557399524064095 a57.28539814953259,57.28539814953259 0 0,0 0.9365267247341413,0.30875813670821123 l -11.657397587873081 34.36182766309665" fill="#beff1f" stroke="none" /><path d="M 107.08798089147638 80.2323363322302 l 8.86261372516317 -24.71693561519948 a47.25781461293698,47.25781461293698 0 0,0 0.7633659981938683,0.28115413944546963 l -9.286762049129615 24.560718207947684" fill="#ff930d" stroke="none" /><path d="M 107.76421540070413 80.48803036053334 l 12.264502273102131 -30.821478236453373 a54.17199928685481,54.17199928685481 0 0,0 0.8634400941884132,0.3522188941090919 l -12.793226236878931 30.605798456160702" fill="#f1ff19" stroke="none" /><path d="M 108.43124777332544 80.76684994638697 l 11.622124684108442 -26.512098090445917 a49.94762731780256,49.94762731780256 0 0,0 0.7844581252175437,0.35196349437961416 l -12.076764927792766 26.308114265549772" fill="#ffc412" stroke="none" /><path d="M 108.76106565485865 80.91482961587045 l 18.053077721648126 -39.32695836887285 a64.27266192148255,64.27266192148255 0 0,0 1.0014959713563685,0.47021578714667595 l -18.72735190430409 39.01037759908617" fill="#54ff2b" stroke="none" /><path d="M 109.41281617654863 81.2277094730956 l 10.676858927955513 -21.29321278043324 a44.820080333203514,44.820080333203514 0 0,0 0.6866852758398907,0.3517468692860062 l -11.041804691384158 21.106273385834733" fill="#ff6509" stroke="none" /><line stroke="#e1ed5e" stroke-width="0.3" x1="143.23703022742887" x2="145.7803849466894" y1="26.81831364943548" y2="22.513508569990506" /><path d="M 143.74570117128098 25.957352633546492 a86.0,86.0 0 0,1 28.547481713284135,27.462654790039103" fill="none" id="id86" stroke="none" /><text fill="#e1ed5e" style="font-size:6.75px; font-family:Arial;" text-anchor="middle"><textPath startOffset="19.985693538727396" xlink:href="#id86">February</textPath></text><path d="M 110.68208982089419 81.91981866633111 l 18.607718856969488 -31.49486072302804 a57.58105319728988,57.58105319728988 0 0,0 0.8490132541438636,0.5115209859475386 l -19.147094177330988 31.169893127621886" fill="#b9ff1f" stroke="none" /><path d="M 110.99172775467656 82.1063720568725 l 25.67661467339095 -41.799414983620615 a70.0558827670925,70.0558827670925 0 0,0 1.0220847973091027,0.6400294063087206 l -26.392318623072317 41.35124123598895" fill="#35ff63" stroke="none" /><path d="M 111.60114157652 82.49532879139004 l 21.04919998503481 -31.76060929107623 a59.102560577346864,59.102560577346864 0 0,0 0.8431833189298146,0.5693211408306431 l -21.59278799837117 31.393576237946917" fill="#a1ff22" stroke="none" /><path d="M 112.19680574252982 82.90503203632743 l 24.34225808693376 -34.11795932016459 a62.9115816564264,62.9115816564264 0 0,0 0.8761327005244273,0.6365476671071774 l -24.925936103811974 33.693892418240736" fill="#68ff28" stroke="none" /><path d="M 112.77801427241765 83.33499621200491 l 18.724718204050678 -24.420656695714012 a51.77309775227428,51.77309775227428 0 0,0 0.7025546370450783,0.548355037950682 l -19.142305396255185 24.094723268540108" fill="#ffe415" stroke="none" /><path d="M 113.06298171725822 83.55741782278167 l 23.998051769480657 -30.20672820750495 a59.579177255778134,59.579177255778134 0 0,0 0.7975002020439524,0.644856367631334 l -24.514455370089102 29.789165742609484" fill="#9aff23" stroke="none" /><path d="M 113.6212207817346 84.01681056812373 l 12.129989979855724 -14.233373848162948 a39.70095152694026,39.70095152694026 0 0,0 0.5163131457919811,0.44774167219658134 l -12.37319692429447 14.022467182546695" fill="#ff0000" stroke="none" /><path d="M 114.68862486808459 84.99185889309783 l 34.17116678878095 -34.914479575812706 a69.8537564958574,69.8537564958574 0 0,0 0.852096744669905,0.8484375704528387 l -34.767099333618184 34.321106154709746" fill="#34ff60" stroke="none" /><path d="M 115.4437574822437 85.77008943001954 l 29.471312202808956 -27.154928941879376 a61.074286129561365,61.074286129561365 0 0,0 0.7057173297225672,0.7792707018056195 l -29.93437317314756 26.64360545280421" fill="#83ff25" stroke="none" /><path d="M 116.60985879189232 87.15038557335679 l 49.829576375676965 -38.54884327992963 a84.0,84.0 0 0,0 0.874896239103546,1.1512608964758657 l -50.48574855500462 37.68539760757273" fill="#4dd2ff" stroke="none" /><path d="M 117.04232023915458 87.72973835380427 l 27.881255421418736 -20.074162100253574 a55.35602404094002,55.35602404094002 0 0,0 0.550100173103669,0.7780776830419838 l -28.22266821432629 19.591257916879798" fill="#ddff1b" stroke="none" /><path d="M 117.45458315368197 88.32363383020206 l 36.63775544396855 -24.50908420079015 a65.07970431313564,65.07970431313564 0 0,0 0.6148586812208322,0.9364719545287546 l -37.054210760547306 23.874794182283722" fill="#49ff2c" stroke="none" /><line stroke="#e1ed5e" stroke-width="0.3" x1="172.23445277983987" x2="176.4835382374775" y1="55.19839476539836" y2="52.563006222186495" /><path d="M 173.08426987136738 54.67131705675599 a86.0,86.0 0 0,1 12.851231095245387,41.99856678651699" fill="none" id="id87" stroke="none" /><text fill="#e1ed5e" style="font-size:6.75px; font-family:Arial;" text-anchor="middle"><textPath startOffset="22.20632615414155" xlink:href="#id87">March</textPath></text><path d="M 117.84615892207809 88.93136811851018 l 51.30442237195614 -31.82027951264753 a81.37113501652168,81.37113501652168 0 0,0 0.7280167021487174,1.1966680392295057 l -51.844554872391086 30.932443700210943" fill="#48f4ff" stroke="none" /><path d="M 118.3937258080291 89.86733742301442 l 22.88143768162337 -12.604835459872275 a47.12359216012353,47.12359216012353 0 0,0 0.3852732909345456,0.7138528952295597 l -23.095019071776385 12.209101581310257" fill="#ff910d" stroke="none" /><path d="M 118.56541770881063 90.18545643968196 l 27.617706215126294 -14.600004424128208 a52.23936340211799,52.23936340211799 0 0,0 0.4134137816739362,0.7985838392302147 l -27.864929429960345 14.122447862637648" fill="#ffed16" stroke="none" /><path d="M 118.89224826269711 90.83032412892265 l 17.749860624830376 -8.615198488994276 a40.730159583887634,40.730159583887634 0 0,0 0.30070845271425917,0.6333686916328399 l -17.895527271386392 8.308387381720895" fill="#ff1502" stroke="none" /><path d="M 119.04729006885535 91.15688171328212 l 33.057406962435884 -15.347619475748308 a57.44642065625201,57.44642065625201 0 0,0 0.4086839116568083,0.9004808262304221 l -33.31669319105604 14.776316640675823" fill="#bbff1f" stroke="none" /><path d="M 119.61058180528143 92.48833698450437 l 22.37759575325722 -8.57154367292583 a44.96305808182817,44.96305808182817 0 0,0 0.27062496326085694,0.72514035527245 l -22.521825305019703 8.185080180624048" fill="#ff6809" stroke="none" /><path d="M 120.08093135843002 93.85539295169968 l 44.9564114771721 -13.756308305538575 a68.01398676034442,68.01398676034442 0 0,0 0.3329255596612459,1.1224594810164745 l -45.18654293394504 12.98041943777557" fill="#31ff41" stroke="none" /><path d="M 120.28053869075195 94.5502522615342 l 27.69304287758193 -7.4416217485465 a49.675466135148206,49.675466135148206 0 0,0 0.21479593052971502,0.8276963411054947 l -27.817035139981947 6.963828981892155" fill="#ffbf11" stroke="none" /><line stroke="#e1ed5e" stroke-width="0.3" x1="184.98032266829074" x2="189.97916517819016" y1="98.17113171792111" y2="98.06355123074" /><path d="M 185.9800911702706 98.14961562048488 a86.0,86.0 0 0,1 -9.607161424134198,41.387399972396054" fill="none" id="id88" stroke="none" /><text fill="#e1ed5e" style="font-size:6.75px; font-family:Arial;" text-anchor="middle"><textPath startOffset="21.466115282336823" xlink:href="#id88">April</textPath></text><line stroke="#e1ed5e" stroke-width="0.3" x1="174.80103733775053" x2="179.2010983576182" y1="140.37084112569926" y2="142.7455964860345" /><path d="M 175.68104954172406 140.8457921977663 a86.0,86.0 0 0,1 -30.038265399797805,32.042727171017184" fill="none" id="id89" stroke="none" /><text fill="#e1ed5e" style="font-size:6.75px; font-family:Arial;" text-anchor="middle"><textPath startOffset="22.206326154141568" xlink:href="#id89">May</textPath></text><line stroke="#e1ed5e" stroke-width="0.3" x1="143.8653032363475" x2="146.44561519142675" y1="172.8068346515853" y2="177.08958963109032" /><path d="M 144.38136562736335 173.6633856474863 a86.0,86.0 0 0,1 -40.68145358897372,12.25698825130547" fill="none" id="id90" stroke="none" /><text fill="#e1ed5e" style="font-size:6.75px; font-family:Arial;" text-anchor="middle"><textPath startOffset="21.466115282336833" xlink:href="#id90">June</textPath></text><line stroke="#e1ed5e" stroke-width="0.3" x1="102.19456741930631" x2="102.32365962044197" y1="184.97166512339345" y2="189.96999836594603" /><path d="M 102.22038585953345 185.97133177190398 a86.0,86.0 0 0,1 -42.740103519485714,-10.115201625700543" fill="none" id="id91" stroke="none" /><text fill="#e1ed5e" style="font-size:6.75px; font-family:Arial;" text-anchor="middle"><textPath startOffset="22.20632615414155" xlink:href="#id91">July</textPath></text><line stroke="#e1ed5e" stroke-width="0.3" x1="58.666819895761336" x2="56.23545636021788" y1="174.27360380694188" y2="178.64263932499728" /><path d="M 58.180547188652646 175.14741091055294 a86.0,86.0 0 0,1 -31.652253787137756,-30.449443065178592" fill="none" id="id92" stroke="none" /><text fill="#e1ed5e" style="font-size:6.75px; font-family:Arial;" text-anchor="middle"><textPath startOffset="22.20632615414155" xlink:href="#id92">August</textPath></text><line stroke="#e1ed5e" stroke-width="0.3" x1="26.63291911575756" x2="22.317208475507996" y1="142.92168965132927" y2="145.44649492493687" /><path d="M 25.769776987707644 143.4266507060508 a86.0,86.0 0 0,1 -11.730757126820373,-40.83630448921669" fill="none" id="id93" stroke="none" /><text fill="#e1ed5e" style="font-size:6.75px; font-family:Arial;" text-anchor="middle"><textPath startOffset="21.46611528233685" xlink:href="#id93">September</textPath></text><line stroke="#e1ed5e" stroke-width="0.3" x1="15.007084014347285" x2="10.007500721073583" y1="101.09737516637583" y2="101.16192664675087" /><path d="M 14.007167355692545 101.11028546245083 a86.0,86.0 0 0,1 10.666146001902534,-42.60595125391555" fill="none" id="id94" stroke="none" /><text fill="#e1ed5e" style="font-size:6.75px; font-family:Arial;" text-anchor="middle"><textPath startOffset="22.20632615414155" xlink:href="#id94">October</textPath></text><line stroke="#e1ed5e" stroke-width="0.3" x1="26.266209847984243" x2="21.928928074336255" y1="57.711370442889674" y2="55.22380399835377" /><path d="M 25.398753493254645 57.213857153982495 a86.0,86.0 0 0,1 29.58750427330803,-30.492523968695096" fill="none" id="id95" stroke="none" /><text fill="#e1ed5e" style="font-size:6.75px; font-family:Arial;" text-anchor="middle"><textPath startOffset="21.46611528233685" xlink:href="#id95">November</textPath></text><line stroke="#e1ed5e" stroke-width="0.3" x1="56.762969772571076" x2="54.21961505331055" y1="26.818313649435495" y2="22.513508569990535" /><path d="M 56.25429882871897 25.957352633546506 a86.0,86.0 0 0,1 42.265352541879196,-11.944610805530505" fill="none" id="id96" stroke="none" /><text fill="#e1ed5e" style="font-size:6.75px; font-family:Arial;" text-anchor="middle"><textPath startOffset="22.20632615414155" xlink:href="#id96">December</textPath></text></svg>