<?xml version="1.0" encoding="utf-8" ?>
<svg baseProfile="full" height="200mm" version="1.1" viewBox="0,0,200,200" width="200mm" xmlns="http://www.w3.org/2000/svg" xmlns:ev="http://www.w3.org/2001/xml-events" xmlns:xlink="http://www.w3.org/1999/xlink"><defs /><rect fill="#1a1a1a" height="200" width="200" x="0" y="0" /><text alignment-baseline="middle" fill="#e1ed5e" style="dominant-baseline: central; font-size:9.0px; font-family:Arial;" text-anchor="middle" x="100.0" y="100.0">2025</text><line stroke="#e1ed5e" stroke-width="0.3" x1="100.0" x2="100.0" y1="15.0" y2="10.0" /><path d="M 100.0 14.0 a86.0,86.0 0 0,1 42.46469731375804,11.215312516191453" fill="none" id="id85" stroke="none" /><text fill="#e1ed5e" style="font-size:6.75px; font-family:Arial;" text-anchor="middle"><textPath startOffset="22.20632615414155" xlink:href="#id85">January</textPath></text><path d="M 103.59715602781102 79.31037775812273 l 2.1858398647299953 -12.57221002726977 a33.760813488333156,33.760813488333156 0 0,0 0.5716909519993458,0.10447286732127734 l -2.401925937832242 12.532721678597754" fill="#ff5b08" stroke="none" /><path d="M 103.95276090670814 79.375362276772 l 3.4913304613144316 -18.21699506653153 a39.54853896252037,39.54853896252037 0 0,0 0.6674919364197802,0.13389260300769457 l -3.8043888072013368 18.15419850744663" fill="#ffb010" stroke="none" /><path d="M 104.66035177308747 79.52364482259891 l 3.8975336283711646 -17.124733663081525 a38.56266697901437,38.56266697901437 0 0,0 0.645972990989034,0.15288093641682313 l -4.1917303063227225 17.055106814523832" fill="#ffa20f" stroke="none" /><path d="M 105.36241919743992 79.69619591428918 l 4.316372633181375 -16.3431430998304 a37.9035321483414,37.9035321483414 0 0,0 0.6293829364763609,0.1720341316171526 l -4.597053458881447 16.266422427386953" fill="#ff990e" stroke="none" /><path d="M 106.0581310904928 79.89281104454417 l 5.12484076834288 -17.009559574801404 a38.76482788629227,38.76482788629227 0 0,0 0.6372469338428353,0.19799572430409587 l -5.416873074896433 16.91882371561479" fill="#ffa50f" stroke="none" /><path d="M 106.40334571778207 80.00007090966166 l 6.852957927865037 -21.40422814213533 a43.47451923226983,43.47451923226983 0 0,0 0.7107404403424105,0.23431994864384909 l -7.220381190449865 21.283094469232246" fill="#ffe715" stroke="none" /><path d="M 107.08798089147638 80.2323363322302 l 5.489342621886704 -15.309222805199708 a37.263615382801845,37.263615382801845 0 0,0 0.6019274734980612,0.2216949683642492 l -5.752052421157341 15.212464569029134" fill="#ff8f0d" stroke="none" /><path d="M 107.76421540070413 80.48803036053334 l 7.596410850313392 -19.090266077212114 a41.54613629628487,41.54613629628487 0 0,0 0.6621981892688531,0.27012726820909366 l -7.9238929091706325 18.95667792281944" fill="#ffcd13" stroke="none" /><path d="M 108.43124777332544 80.76684994638697 l 7.19853379192417 -16.421113968932055 a38.92963671506285,38.92963671506285 0 0,0 0.6114138242961848,0.2743235606765005 l -7.480129734687135 16.294770077739024" fill="#ffa80f" stroke="none" /><path d="M 108.76106565485865 80.91482961587045 l 11.181749771211184 -24.358406612090405 a47.80230401711597,47.80230401711597 0 0,0 0.7448550202133858,0.3497194194055938 l -11.599383002724167 24.16232221004481" fill="#ddff1b" stroke="none" /><path d="M 109.41281617654863 81.2277094730956 l 6.613053281865643 -13.188630814481641 a35.75372686711695,35.75372686711695 0 0,0 0.5477803166243342,0.2805943540779117 l -6.839094086078732 13.072843935091228" fill="#ff790b" stroke="none" /><line stroke="#e1ed5e" stroke-width="0.3" x1="143.23703022742887" x2="145.7803849466894" y1="26.81831364943548" y2="22.513508569990506" /><path d="M 143.74570117128098 25.957352633546492 a86.0,86.0 0 0,1 28.547481713284135,27.462654790039103" fill="none" id="id86" stroke="none" /><text fill="#e1ed5e" style="font-size:6.75px; font-family:Arial;" text-anchor="middle"><textPath startOffset="19.985693538727396" xlink:href="#id86">February</textPath></text><path d="M 110.68208982089419 81.91981866633111 l 11.525284457296708 -19.507347008302602 a43.65764262062445,43.65764262062445 0 0,0 0.643717250231379,0.3878324406629327 l -11.859363773745725 19.306067958181057" fill="#ffea16" stroke="none" /><path d="M 110.99172775467656 82.1063720568725 l 15.903630653812739 -25.889801513976504 a51.3843263938168,51.3843263938168 0 0,0 0.7496749273960894,0.4694463707601212 l -16.34692473358109 25.612210801893436" fill="#afff20" stroke="none" /><path d="M 111.60114157652 82.49532879139004 l 13.037493703060072 -19.67194686411607 a44.600036768656466,44.600036768656466 0 0,0 0.6362838878659574,0.4296217213971675 l -13.374182285332571 19.44461323042023" fill="#fff717" stroke="none" /><path d="M 112.19680574252982 82.90503203632743 l 15.077154321888452 -21.132046829055287 a46.959275522083146,46.959275522083146 0 0,0 0.6539742889079095,0.475140133113658 l -15.43867392715015 20.86938746112495" fill="#e8ff1a" stroke="none" /><path d="M 112.77801427241765 83.33499621200491 l 11.597751736429295 -15.125713001982133 a40.060300080486144,40.060300080486144 0 0,0 0.5436133977848859,0.4242988796239397 l -11.85639768937361 14.92383573313497" fill="#ffb811" stroke="none" /><path d="M 113.06298171725822 83.55741782278167 l 14.863959155348212 -18.709501029748587 a44.89524451756088,44.89524451756088 0 0,0 0.600947650214406,0.48592454003226665 l -15.18381020412711 18.45087039245219" fill="#fffb17" stroke="none" /><path d="M 113.6212207817346 84.01681056812373 l 7.513096369124987 -8.815894288175125 a32.58303108655234,32.58303108655234 0 0,0 0.4237441832677479,0.36746678008527045 l -7.663734351039499 8.685262514670184" fill="#ff4906" stroke="none" /><path d="M 114.68862486808459 84.99185889309783 l 21.16500257262439 -21.625397066819914 a51.25913303775937,51.25913303775937 0 0,0 0.625274038034971,0.6225889126042139 l -21.534112410826687 21.257872303565584" fill="#b1ff20" stroke="none" /><path d="M 115.4437574822437 85.77008943001954 l 18.25399765968368 -16.819271769877222 a45.821287908340416,45.821287908340416 0 0,0 0.5294679479105882,0.5846517323218728 l -18.5408092482103 16.5025672502858" fill="#f7ff19" stroke="none" /><path d="M 116.60985879189232 87.15038557335679 l 30.863538219310847 -23.876456201644135 a60.02106036698506,60.02106036698506 0 0,0 0.6251452378819301,0.8226178543515151 l -31.26995939741689 23.341653571411587" fill="#4aff2c" stroke="none" /><path d="M 117.04232023915458 87.72973835380427 l 17.26914525248429 -12.4335728750895 a42.27949981065255,42.27949981065255 0 0,0 0.42015228816606237,0.5942756153967429 l -17.480610160454233 12.134470759360962" fill="#ffd714" stroke="none" /><path d="M 117.45458315368197 88.32363383020206 l 22.69276296650687 -15.180483399024643 a48.302171475582824,48.302171475582824 0 0,0 0.4563482542987665,0.6950496995511424 l -22.95070785616356 14.787615635495827" fill="#d6ff1c" stroke="none" /><line stroke="#e1ed5e" stroke-width="0.3" x1="172.23445277983987" x2="176.4835382374775" y1="55.19839476539836" y2="52.563006222186495" /><path d="M 173.08426987136738 54.67131705675599 a86.0,86.0 0 0,1 12.851231095245387,41.99856678651699" fill="none" id="id87" stroke="none" /><text fill="#e1ed5e" style="font-size:6.75px; font-family:Arial;" text-anchor="middle"><textPath startOffset="22.20632615414155" xlink:href="#id87">March</textPath></text><path d="M 117.84615892207809 88.93136811851018 l 31.77703115030793 -19.70890551995805 a58.39278895084283,58.39278895084283 0 0,0 0.5224325018033384,0.8587416685875106 l -32.11157945039749 19.15899607816346" fill="#5cff2a" stroke="none" /><path d="M 118.3937258080291 89.86733742301442 l 14.172348588222741 -7.807207069771271 a37.180480423534576,37.180480423534576 0 0,0 0.3039803502803481,0.5632294224553137 l -14.304637037721553 7.5620966639835" fill="#ff8e0d" stroke="none" /><path d="M 118.56541770881063 90.18545643968196 l 17.105907641557174 -9.042978634796125 a40.34909658952746,40.34909658952746 0 0,0 0.31931615398527546,0.6168171732090669 l -17.259033228702563 8.747188739326713" fill="#ffbc11" stroke="none" /><path d="M 118.89224826269711 90.83032412892265 l 10.993942586461547 -5.336098100200066 a33.220503939256005,33.220503939256005 0 0,0 0.24526509201091926,0.5165908341717788 l -11.084165872314221 5.146064850387747" fill="#ff5207" stroke="none" /><path d="M 119.04729006885535 91.15688171328212 l 20.47515988344766 -9.506037873852225 a43.574253660129216,43.574253660129216 0 0,0 0.30999488270831915,0.6830326326689394 l -20.635757083119326 9.152183232341223" fill="#ffe915" stroke="none" /><path d="M 119.61058180528143 92.48833698450437 l 13.860278011997439 -5.309059096817266 a35.84228469823153,35.84228469823153 0 0,0 0.2157285868321369,0.5780453592046946 l -13.9496111873312 5.069690600583238" fill="#ff7a0b" stroke="none" /><path d="M 120.08093135843002 93.85539295169968 l 27.84518803386909 -8.520408520909186 a50.119612943937085,50.119612943937085 0 0,0 0.24533336427051078,0.827142142571754 l -27.9877272952513 8.039836991590903" fill="#bfff1e" stroke="none" /><path d="M 120.28053869075195 94.5502522615342 l 17.15256980748619 -4.609205896480982 a38.76106500176276,38.76106500176276 0 0,0 0.1676022325130329,0.6458397711261974 l -17.229368371869526 4.313269699805934" fill="#ffa50f" stroke="none" /><path d="M 120.45610955862082 95.25157060432595 l 22.17288037475264 -5.146939434232198 a43.76241660397123,43.76241660397123 0 0,0 0.16401656309941737,0.7352540919585802 l -22.258191324854096 4.764507172723654" fill="#ffeb16" stroke="none" /><path d="M 120.6074358757038 95.95851677861258 l 14.444731852183251 -2.8328677944288603 a35.71989871643788,35.71989871643788 0 0,0 0.11313729548271487,0.6043839564174878 l -14.491354871575824 2.5838057605488096" fill="#ff780b" stroke="none" /><path d="M 120.67395015179393 96.31383870115 l 24.01301474598804 -4.281515867817575 a45.391725140248134,45.391725140248134 0 0,0 0.13052960874310848,0.7703931396593191 l -24.083156216251375 3.867536939842418" fill="#fdff18" stroke="none" /><path d="M 120.78858239683441 97.02765380044208 l 12.879609491050807 -1.8415232742538707 a34.01059370711363,34.01059370711363 0 0,0 0.07787454380268581,0.5802558047976079 l -12.90940003391133 1.6195491273915985" fill="#ff5f08" stroke="none" /><path d="M 120.83666639777658 97.38593545837742 l 12.798063212311972 -1.6055813634525982 a33.89838414302347,33.89838414302347 0 0,0 0.06765091967537394,0.5795917660581952 l -12.823804484990934 1.3850458590695502" fill="#ff5d08" stroke="none" /><path d="M 120.91429891909075 98.10471618934814 l 12.23320331858157 -1.108590457266367 a33.283331642339434,33.283331642339434 0 0,0 0.0467955974736674,0.5710248180806283 l -12.25047339987473 0.8978517219779699" fill="#ff5307" stroke="none" /><path d="M 120.96714384426684 98.82574320788733 l 62.90143153280055 -3.5227703763380056 a84.0,84.0 0 0,0 0.0684255670660141,1.444355573508001 l -62.95275070810006 2.4395036962070047" fill="#4dd2ff" stroke="none" /><line stroke="#e1ed5e" stroke-width="0.3" x1="184.98032266829074" x2="189.97916517819016" y1="98.17113171792111" y2="98.06355123074" /><path d="M 185.9800911702706 98.14961562048488 a86.0,86.0 0 0,1 -9.607161424134198,41.387399972396054" fill="none" id="id88" stroke="none" /><text fill="#e1ed5e" style="font-size:6.75px; font-family:Arial;" text-anchor="middle"><textPath startOffset="21.466115282336823" xlink:href="#id88">April</textPath></text><path d="M 120.9764740272857 100.99374915477107 l 11.64852520014359 0.5518426050495769 a32.66158949711094,32.66158949711094 0 0,0 -0.03143856712143613,0.5613567351880578 l -11.637300282134625 -0.752271056573058" fill="#ff4a06" stroke="none" /><path d="M 120.95626037817324 101.35467743843564 l 21.465967960314554 1.3876265118516975 a42.51077143687889,42.51077143687889 0 0,0 -0.053489565485529474,0.7298226233924111 l -21.43890183616469 -1.7569222717408788" fill="#ffda14" stroke="none" /><path d="M 120.8583938346157 102.4346265915055 l 12.702692531656991 1.4826795038248128 a33.78893021581072,33.78893021581072 0 0,0 -0.07240242208928822,0.577118541430166 l -12.675288600320854 -1.7011157995423738" fill="#ff5b08" stroke="none" /><path d="M 119.67450827220406 107.3425965602758 l 10.970756622468942 4.094325445153257 a32.70986770720641,32.70986770720641 0 0,0 -0.20140823848959116,0.5258133557123081 l -10.898654104385844 -4.282562367698708" fill="#ff4b06" stroke="none" /><path d="M 119.12269723197855 108.67885076344098 l 13.767139892000996 6.248226968854711 a36.118679871610766,36.118679871610766 0 0,0 -0.26181808965216286,0.5639328726800568 l -13.657547185509001 -6.4842799088135985" fill="#ff7e0b" stroke="none" /><line stroke="#e1ed5e" stroke-width="0.3" x1="174.80103733775053" x2="179.2010983576182" y1="140.37084112569926" y2="142.7455964860345" /><path d="M 175.68104954172406 140.8457921977663 a86.0,86.0 0 0,1 -30.038265399797805,32.042727171017184" fill="none" id="id89" stroke="none" /><text fill="#e1ed5e" style="font-size:6.75px; font-family:Arial;" text-anchor="middle"><textPath startOffset="22.206326154141568" xlink:href="#id89">May</textPath></text><path d="M 118.48025628344425 109.97397251340804 l 10.651737260141973 5.748845309460174 a33.10407902532031,33.10407902532031 0 0,0 -0.2749586821617781,0.4991298752716793 l -10.551202168528684 -5.931345703129659" fill="#ff5107" stroke="none" /><path d="M 117.94076556474637 110.91462005526583 l 11.980982860383245 7.288868211214696 a35.02396342341398,35.02396342341398 0 0,0 -0.3177763567207748,0.5123566692286309 l -11.853741863994507 -7.4940212118086" fill="#ff6e0a" stroke="none" /><path d="M 112.63410532772338 116.77436683061366 l 7.63895028286701 10.142273704530005 a33.69721533729797,33.69721533729797 0 0,0 -0.466329392002898,0.344979335842511 l -7.463235920445547 -10.272262989112287" fill="#ff5a08" stroke="none" /><path d="M 111.7513745106137 117.40417183066458 l 6.846397624980047 10.139739872862226 a33.23468369548819,33.23468369548819 0 0,0 -0.47687862270595144,0.3160491477330041 l -6.670844303534131 -10.256087041686548" fill="#ff5307" stroke="none" /><line stroke="#e1ed5e" stroke-width="0.3" x1="143.8653032363475" x2="146.44561519142675" y1="172.8068346515853" y2="177.08958963109032" /><path d="M 144.38136562736335 173.6633856474863 a86.0,86.0 0 0,1 -40.68145358897372,12.25698825130547" fill="none" id="id90" stroke="none" /><text fill="#e1ed5e" style="font-size:6.75px; font-family:Arial;" text-anchor="middle"><textPath startOffset="21.466115282336833" xlink:href="#id90">June</textPath></text><path d="M 107.93186726928326 119.44442032107085 l 5.712762427847408 14.00443931678696 a36.124813226436665,36.124813226436665 0 0,0 -0.5777887330801954,0.22991406109307808 l -5.4708526187253455 -14.100700222286108" fill="#ff7e0b" stroke="none" /><path d="M 104.13013068566511 120.58985236759428 l 1.8665950139043879 9.30549628847635 a30.490860768169547,30.490860768169547 0 0,0 -0.5154877634421556,0.09879445673490643 l -1.7061396358905279 -9.336247943559725" fill="#ff2803" stroke="none" /><path d="M 103.06178313531738 120.77559828337769 l 1.9107532614737317 12.965334389993327 a34.105375762280765,34.105375762280765 0 0,0 -0.581531426062019,0.0805949567257735 l -1.6872932442248822 -12.996303912211703" fill="#ff6008" stroke="none" /><line stroke="#e1ed5e" stroke-width="0.3" x1="102.19456741930631" x2="102.32365962044197" y1="184.97166512339345" y2="189.96999836594603" /><path d="M 102.22038585953345 185.97133177190398 a86.0,86.0 0 0,1 -42.740103519485714,-10.115201625700543" fill="none" id="id91" stroke="none" /><text fill="#e1ed5e" style="font-size:6.75px; font-family:Arial;" text-anchor="middle"><textPath startOffset="22.20632615414155" xlink:href="#id91">July</textPath></text><path d="M 99.81925306533755 120.99922214144158 l -0.09614709677024577 11.170392721202475 a32.17080649774718,32.17080649774718 0 0,0 -0.553706013188034,-0.009532551160951898 l 0.28841279985094764 -11.167082692762364" fill="#ff4206" stroke="none" /><path d="M 98.73552117531835 120.96189622390904 l -0.7237199518300408 11.99746664737796 a33.01927520791597,33.01927520791597 0 0,0 -0.5670466786696922,-0.03910685891872631 l 0.9301293912786629 -11.983231443942948" fill="#ff4f07" stroke="none" /><path d="M 93.42475214034765 119.94407469862007 l -4.071086388295056 12.34843959737586 a34.002219228693285,34.002219228693285 0 0,0 -0.5542851804421699,-0.18804362762169738 l 4.2830413016744515 -12.27653298285604" fill="#ff5e08" stroke="none" /><line stroke="#e1ed5e" stroke-width="0.3" x1="58.666819895761336" x2="56.23545636021788" y1="174.27360380694188" y2="178.64263932499728" /><path d="M 58.180547188652646 175.14741091055294 a86.0,86.0 0 0,1 -31.652253787137756,-30.449443065178592" fill="none" id="id92" stroke="none" /><text fill="#e1ed5e" style="font-size:6.75px; font-family:Arial;" text-anchor="middle"><textPath startOffset="22.20632615414155" xlink:href="#id92">August</textPath></text><line stroke="#e1ed5e" stroke-width="0.3" x1="26.63291911575756" x2="22.317208475507996" y1="142.92168965132927" y2="145.44649492493687" /><path d="M 25.769776987707644 143.4266507060508 a86.0,86.0 0 0,1 -11.730757126820373,-40.83630448921669" fill="none" id="id93" stroke="none" /><text fill="#e1ed5e" style="font-size:6.75px; font-family:Arial;" text-anchor="middle"><textPath startOffset="21.46611528233685" xlink:href="#id93">September</textPath></text><path d="M 79.97269907076064 106.31721596034903 l -11.400707624147651 3.5961277266968086 a32.95442466026768,32.95442466026768 0 0,0 -0.1659855169771467,-0.5424502733390563 l 11.46091991363093 -3.3993504808057042" fill="#ff4e07" stroke="none" /><path d="M 79.50377843672027 104.57218783832718 l -6.820586870923382 1.5215001577344283 a27.988230676916604,27.988230676916604 0 0,0 -0.10084554183671386,-0.4711167982515527 l 6.845766451484536 -1.4038695400667118" fill="#ff0000" stroke="none" /><line stroke="#e1ed5e" stroke-width="0.3" x1="15.007084014347285" x2="10.007500721073583" y1="101.09737516637583" y2="101.16192664675087" /><path d="M 14.007167355692545 101.11028546245083 a86.0,86.0 0 0,1 10.666146001902534,-42.60595125391555" fill="none" id="id94" stroke="none" /><text fill="#e1ed5e" style="font-size:6.75px; font-family:Arial;" text-anchor="middle"><textPath startOffset="22.20632615414155" xlink:href="#id94">October</textPath></text><line stroke="#e1ed5e" stroke-width="0.3" x1="26.266209847984243" x2="21.928928074336255" y1="57.711370442889674" y2="55.22380399835377" /><path d="M 25.398753493254645 57.213857153982495 a86.0,86.0 0 0,1 29.58750427330803,-30.492523968695096" fill="none" id="id95" stroke="none" /><text fill="#e1ed5e" style="font-size:6.75px; font-family:Arial;" text-anchor="middle"><textPath startOffset="21.46611528233685" xlink:href="#id95">November</textPath></text><line stroke="#e1ed5e" stroke-width="0.3" x1="56.762969772571076" x2="54.21961505331055" y1="26.818313649435495" y2="22.513508569990535" /><path d="M 56.25429882871897 25.957352633546506 a86.0,86.0 0 0,1 42.265352541879196,-11.944610805530505" fill="none" id="id96" stroke="none" /><text fill="#e1ed5e" style="font-size:6.75px; font-family:Arial;" text-anchor="middle"><textPath startOffset="22.20632615414155" xlink:href="#id96">December</textPath></text></svg>